<svg width="1067" height="268" viewBox="0 0 1067 268" version="1.1" xmlns="http://www.w3.org/2000/svg" xmlns:xlink="http://www.w3.org/1999/xlink">
<title>Group 10</title>
<desc>Created using Figma</desc>
<g id="Canvas" transform="translate(2185 -7970)">
<g id="Group 10">
<g id="Combined Shape">
<use xlink:href="#path0_fill" transform="matrix(6.12323e-17 1 -1 6.12323e-17 -1768 8056)" fill="url(#paint0_linear)"/>
</g>
<g id="Combined Shape Copy">
<use xlink:href="#path0_fill" transform="matrix(6.12323e-17 1 -1 6.12323e-17 -1302 8056)" fill="url(#paint1_linear)"/>
</g>
<g id="Combined Shape Copy 2">
<use xlink:href="#path1_fill" transform="matrix(6.12323e-17 1 -1 6.12323e-17 -1347.5 7990.5)" fill="url(#paint2_linear)"/>
</g>
<g id="Combined Shape Copy 3">
<use xlink:href="#path1_fill" transform="matrix(6.12323e-17 1 -1 6.12323e-17 -1347.5 8145.5)" fill="url(#paint3_linear)"/>
</g>
<g id="Oval 5 Copy 2">
<use xlink:href="#path2_fill" transform="translate(-1185 8104)" fill="#E9E9E9"/>
</g>
<g id="Oval 5 Copy 3">
<use xlink:href="#path3_fill" transform="translate(-1251 8171)" fill="#E9E9E9"/>
</g>
<g id="Oval 5 Copy 4">
<use xlink:href="#path4_fill" transform="translate(-1280 8142)" fill="#E9E9E9"/>
</g>
<g id="Oval 5">
<use xlink:href="#path5_fill" transform="translate(-1265 8034)" fill="#00E3F1"/>
</g>
<g id="Oval 5 Copy 5">
<use xlink:href="#path4_fill" transform="translate(-1141 8015)" fill="#E9E9E9"/>
</g>
<g id="Oval 5 Copy">
<use xlink:href="#path2_fill" transform="translate(-1285 8001)" fill="#E9E9E9"/>
</g>
<g id="investors">
<g id="Rectangle 10">
<use xlink:href="#path6_fill" transform="translate(-2185 8068)" fill="#00E3F1"/>
</g>
<g id="INVESTORS">
<use xlink:href="#path7_fill" transform="translate(-2130 8091)" fill="#FFFFFF"/>
</g>
</g>
<g id="30++ startups">
<use xlink:href="#path8_fill" transform="translate(-1297 8068)" fill="#FFFFFF"/>
</g>
<g id="Oval 4">
<use xlink:href="#path9_fill" transform="translate(-1762 7970)" fill="url(#paint13_radial)"/>
</g>
<g id="Group">
<g id="Group">
<g id="Group">
<g id="Vector">
<use xlink:href="#path10_fill" transform="translate(-1732 8099.26)" fill="#1CDEED"/>
</g>
<g id="Vector">
<use xlink:href="#path11_fill" transform="translate(-1683.13 8083)" fill="#1CDEED"/>
</g>
<g id="Vector">
<use xlink:href="#path12_fill" transform="translate(-1729.16 8083)" fill="#1CDEED"/>
</g>
<g id="Vector">
<use xlink:href="#path13_fill" transform="translate(-1630.44 8092.39)" fill="#FFFFFF"/>
</g>
<g id="Vector">
<use xlink:href="#path14_fill" transform="translate(-1603.95 8092.38)" fill="#FFFFFF"/>
</g>
<g id="Vector">
<use xlink:href="#path15_fill" transform="translate(-1577.87 8092.39)" fill="#FFFFFF"/>
</g>
<g id="Vector">
<use xlink:href="#path16_fill" transform="translate(-1551.98 8092.39)" fill="#FFFFFF"/>
</g>
<g id="Vector">
<use xlink:href="#path17_fill" transform="translate(-1538.49 8092.38)" fill="#FFFFFF"/>
</g>
</g>
</g>
</g>
</g>
</g>
<defs>
<linearGradient id="paint0_linear" x1="0" y1="0" x2="1" y2="0" gradientUnits="userSpaceOnUse" gradientTransform="matrix(0 -199 95 0 47.5 199)">
<stop offset="0.265193" stop-color="#FFFFFF"/>
<stop offset="1" stop-color="#DBDBDB"/>
</linearGradient>
<linearGradient id="paint1_linear" x1="0" y1="0" x2="1" y2="0" gradientUnits="userSpaceOnUse" gradientTransform="matrix(0 -199 95 0 47.5 199)">
<stop offset="0.265193" stop-color="#FFFFFF"/>
<stop offset="1" stop-color="#DBDBDB"/>
</linearGradient>
<linearGradient id="paint2_linear" x1="0" y1="0" x2="1" y2="0" gradientUnits="userSpaceOnUse" gradientTransform="matrix(0 -155 74 0 37 155)">
<stop offset="0.265193" stop-color="#FFFFFF"/>
<stop offset="1" stop-color="#DBDBDB"/>
</linearGradient>
<linearGradient id="paint3_linear" x1="0" y1="0" x2="1" y2="0" gradientUnits="userSpaceOnUse" gradientTransform="matrix(0 -155 74 0 37 155)">
<stop offset="0.265193" stop-color="#FFFFFF"/>
<stop offset="1" stop-color="#DBDBDB"/>
</linearGradient>
<radialGradient id="paint13_radial" cx="0.5" cy="0.5" r="0.5" gradientUnits="userSpaceOnUse" gradientTransform="matrix(1.64103e-14 268 -268 1.64103e-14 268 -1.64103e-14)">
<stop offset="0" stop-color="#003A3D"/>
<stop offset="1" stop-color="#1D1D29"/>
</radialGradient>
<path id="path0_fill" fill-rule="evenodd" d="M 95 62.9171L 47.5 0L 0 62.9171L 27.459 62.9171L 27.459 199L 67.1216 199L 67.1216 62.9171L 95 62.9171Z"/>
<path id="path1_fill" fill-rule="evenodd" d="M 74 49.0059L 37 0L 0 49.0059L 21.3892 49.0059L 21.3892 155L 52.2842 155L 52.2842 49.0059L 74 49.0059Z"/>
<path id="path2_fill" fill-rule="evenodd" d="M 33.5 67C 52.0015 67 67 52.0015 67 33.5C 67 14.9985 52.0015 0 33.5 0C 14.9985 0 0 14.9985 0 33.5C 0 52.0015 14.9985 67 33.5 67Z"/>
<path id="path3_fill" fill-rule="evenodd" d="M 18.5 37C 28.7173 37 37 28.7173 37 18.5C 37 8.28273 28.7173 0 18.5 0C 8.28273 0 0 8.28273 0 18.5C 0 28.7173 8.28273 37 18.5 37Z"/>
<path id="path4_fill" fill-rule="evenodd" d="M 9.5 19C 14.7467 19 19 14.7467 19 9.5C 19 4.25329 14.7467 0 9.5 0C 4.25329 0 0 4.25329 0 9.5C 0 14.7467 4.25329 19 9.5 19Z"/>
<path id="path5_fill" fill-rule="evenodd" d="M 67 134C 104.003 134 134 104.003 134 67C 134 29.9969 104.003 0 67 0C 29.9969 0 0 29.9969 0 67C 0 104.003 29.9969 134 67 134Z"/>
<path id="path6_fill" fill-rule="evenodd" d="M 0 35.5C 0 15.8939 15.8939 0 35.5 0L 234.5 0C 254.106 0 270 15.8939 270 35.5C 270 55.1061 254.106 71 234.5 71L 35.5 71C 15.8939 71 0 55.1061 0 35.5Z"/>
<path id="path7_fill" d="M 18.2312 4.368L 21.2552 4.368L 21.2552 21L 18.2312 21L 18.2312 4.368ZM 36.4408 21C 35.8968 20.088 35.2888 19.112 34.6168 18.072C 33.9448 17.016 33.2488 15.96 32.5288 14.904C 31.8088 13.832 31.0728 12.8 30.3208 11.808C 29.5848 10.8 28.8808 9.896 28.2088 9.096L 28.2088 21L 25.2328 21L 25.2328 4.368L 27.7048 4.368C 28.3448 5.04 29.0328 5.84 29.7688 6.768C 30.5048 7.68 31.2408 8.632 31.9768 9.624C 32.7288 10.616 33.4488 11.616 34.1368 12.624C 34.8408 13.616 35.4648 14.544 36.0088 15.408L 36.0088 4.368L 39.0088 4.368L 39.0088 21L 36.4408 21ZM 47.7441 21C 46.5441 18.408 45.3841 15.696 44.2641 12.864C 43.1601 10.032 42.1281 7.2 41.1681 4.368L 44.5041 4.368C 44.8881 5.488 45.2801 6.632 45.6801 7.8C 46.0801 8.968 46.4801 10.12 46.8801 11.256C 47.2801 12.376 47.6801 13.464 48.0801 14.52C 48.4801 15.576 48.8721 16.544 49.2561 17.424C 49.6241 16.544 50.0081 15.584 50.4081 14.544C 50.8081 13.488 51.2081 12.392 51.6081 11.256C 52.0241 10.12 52.4321 8.968 52.8321 7.8C 53.2321 6.632 53.6161 5.488 53.9841 4.368L 57.2241 4.368C 56.2481 7.2 55.2081 10.032 54.1041 12.864C 53.0001 15.696 51.8481 18.408 50.6481 21L 47.7441 21ZM 59.3686 21L 59.3686 4.368L 70.0486 4.368L 70.0486 6.936L 62.3926 6.936L 62.3926 11.04L 69.2086 11.04L 69.2086 13.56L 62.3926 13.56L 62.3926 18.432L 70.6246 18.432L 70.6246 21L 59.3686 21ZM 77.4568 18.744C 78.5448 18.744 79.3368 18.56 79.8328 18.192C 80.3288 17.824 80.5768 17.304 80.5768 16.632C 80.5768 16.232 80.4888 15.888 80.3128 15.6C 80.1528 15.312 79.9128 15.056 79.5928 14.832C 79.2888 14.592 78.9128 14.376 78.4648 14.184C 78.0168 13.976 77.5048 13.776 76.9288 13.584C 76.3528 13.376 75.7928 13.152 75.2488 12.912C 74.7208 12.656 74.2488 12.344 73.8328 11.976C 73.4328 11.608 73.1048 11.168 72.8488 10.656C 72.6088 10.144 72.4888 9.528 72.4888 8.808C 72.4888 7.304 73.0088 6.128 74.0488 5.28C 75.0888 4.416 76.5048 3.984 78.2968 3.984C 79.3368 3.984 80.2568 4.104 81.0568 4.344C 81.8728 4.568 82.5128 4.816 82.9768 5.088L 82.0408 7.536C 81.4968 7.232 80.8968 7 80.2408 6.84C 79.6008 6.68 78.9368 6.6 78.2488 6.6C 77.4328 6.6 76.7928 6.768 76.3288 7.104C 75.8808 7.44 75.6568 7.912 75.6568 8.52C 75.6568 8.888 75.7288 9.208 75.8728 9.48C 76.0328 9.736 76.2488 9.968 76.5208 10.176C 76.8088 10.384 77.1368 10.576 77.5048 10.752C 77.8888 10.928 78.3048 11.096 78.7528 11.256C 79.5368 11.544 80.2328 11.84 80.8408 12.144C 81.4648 12.432 81.9848 12.784 82.4008 13.2C 82.8328 13.6 83.1608 14.08 83.3848 14.64C 83.6088 15.184 83.7208 15.848 83.7208 16.632C 83.7208 18.136 83.1848 19.304 82.1128 20.136C 81.0568 20.952 79.5048 21.36 77.4568 21.36C 76.7688 21.36 76.1368 21.312 75.5608 21.216C 75.0008 21.136 74.4968 21.032 74.0488 20.904C 73.6168 20.776 73.2408 20.648 72.9208 20.52C 72.6008 20.376 72.3448 20.248 72.1528 20.136L 73.0408 17.664C 73.4728 17.904 74.0568 18.144 74.7928 18.384C 75.5288 18.624 76.4168 18.744 77.4568 18.744ZM 97.9715 4.368L 97.9715 6.984L 92.8595 6.984L 92.8595 21L 89.8115 21L 89.8115 6.984L 84.6995 6.984L 84.6995 4.368L 97.9715 4.368ZM 102.158 12.672C 102.158 13.584 102.27 14.416 102.494 15.168C 102.718 15.904 103.038 16.536 103.454 17.064C 103.886 17.576 104.406 17.976 105.014 18.264C 105.622 18.552 106.31 18.696 107.078 18.696C 107.83 18.696 108.51 18.552 109.118 18.264C 109.726 17.976 110.238 17.576 110.654 17.064C 111.086 16.536 111.414 15.904 111.638 15.168C 111.862 14.416 111.974 13.584 111.974 12.672C 111.974 11.76 111.862 10.936 111.638 10.2C 111.414 9.448 111.086 8.816 110.654 8.304C 110.238 7.776 109.726 7.368 109.118 7.08C 108.51 6.792 107.83 6.648 107.078 6.648C 106.31 6.648 105.622 6.792 105.014 7.08C 104.406 7.368 103.886 7.776 103.454 8.304C 103.038 8.832 102.718 9.464 102.494 10.2C 102.27 10.936 102.158 11.76 102.158 12.672ZM 115.142 12.672C 115.142 14.096 114.926 15.352 114.494 16.44C 114.078 17.528 113.502 18.44 112.766 19.176C 112.046 19.896 111.198 20.44 110.222 20.808C 109.246 21.176 108.206 21.36 107.102 21.36C 105.998 21.36 104.95 21.176 103.958 20.808C 102.982 20.44 102.126 19.896 101.39 19.176C 100.67 18.44 100.094 17.528 99.6617 16.44C 99.2297 15.352 99.0137 14.096 99.0137 12.672C 99.0137 11.248 99.2297 10 99.6617 8.928C 100.094 7.84 100.678 6.928 101.414 6.192C 102.166 5.456 103.03 4.904 104.006 4.536C 104.982 4.168 106.014 3.984 107.102 3.984C 108.19 3.984 109.222 4.168 110.198 4.536C 111.174 4.904 112.022 5.456 112.742 6.192C 113.478 6.928 114.062 7.84 114.494 8.928C 114.926 10 115.142 11.248 115.142 12.672ZM 123.037 4.2C 125.437 4.2 127.269 4.64 128.533 5.52C 129.813 6.4 130.453 7.744 130.453 9.552C 130.453 11.808 129.341 13.336 127.117 14.136C 127.421 14.504 127.765 14.952 128.149 15.48C 128.533 16.008 128.925 16.584 129.325 17.208C 129.725 17.816 130.109 18.448 130.477 19.104C 130.845 19.744 131.173 20.376 131.461 21L 128.077 21C 127.773 20.424 127.445 19.848 127.093 19.272C 126.741 18.68 126.381 18.112 126.013 17.568C 125.661 17.008 125.309 16.488 124.957 16.008C 124.605 15.512 124.277 15.072 123.973 14.688C 123.749 14.704 123.557 14.712 123.397 14.712C 123.237 14.712 123.085 14.712 122.941 14.712L 121.477 14.712L 121.477 21L 118.453 21L 118.453 4.608C 119.189 4.448 119.973 4.344 120.805 4.296C 121.637 4.232 122.381 4.2 123.037 4.2ZM 123.253 6.816C 122.613 6.816 122.021 6.84 121.477 6.888L 121.477 12.264L 122.797 12.264C 123.533 12.264 124.181 12.224 124.741 12.144C 125.301 12.064 125.765 11.92 126.133 11.712C 126.517 11.504 126.805 11.224 126.997 10.872C 127.189 10.52 127.285 10.072 127.285 9.528C 127.285 9.016 127.189 8.584 126.997 8.232C 126.805 7.88 126.525 7.6 126.157 7.392C 125.805 7.184 125.381 7.04 124.885 6.96C 124.389 6.864 123.845 6.816 123.253 6.816ZM 137.83 18.744C 138.918 18.744 139.71 18.56 140.206 18.192C 140.702 17.824 140.95 17.304 140.95 16.632C 140.95 16.232 140.862 15.888 140.686 15.6C 140.526 15.312 140.286 15.056 139.966 14.832C 139.662 14.592 139.286 14.376 138.838 14.184C 138.39 13.976 137.878 13.776 137.302 13.584C 136.726 13.376 136.166 13.152 135.622 12.912C 135.094 12.656 134.622 12.344 134.206 11.976C 133.806 11.608 133.478 11.168 133.222 10.656C 132.982 10.144 132.862 9.528 132.862 8.808C 132.862 7.304 133.382 6.128 134.422 5.28C 135.462 4.416 136.878 3.984 138.67 3.984C 139.71 3.984 140.63 4.104 141.43 4.344C 142.246 4.568 142.886 4.816 143.35 5.088L 142.414 7.536C 141.87 7.232 141.27 7 140.614 6.84C 139.974 6.68 139.31 6.6 138.622 6.6C 137.806 6.6 137.166 6.768 136.702 7.104C 136.254 7.44 136.03 7.912 136.03 8.52C 136.03 8.888 136.102 9.208 136.246 9.48C 136.406 9.736 136.622 9.968 136.894 10.176C 137.182 10.384 137.51 10.576 137.878 10.752C 138.262 10.928 138.678 11.096 139.126 11.256C 139.91 11.544 140.606 11.84 141.214 12.144C 141.838 12.432 142.358 12.784 142.774 13.2C 143.206 13.6 143.534 14.08 143.758 14.64C 143.982 15.184 144.094 15.848 144.094 16.632C 144.094 18.136 143.558 19.304 142.486 20.136C 141.43 20.952 139.878 21.36 137.83 21.36C 137.142 21.36 136.51 21.312 135.934 21.216C 135.374 21.136 134.87 21.032 134.422 20.904C 133.99 20.776 133.614 20.648 133.294 20.52C 132.974 20.376 132.718 20.248 132.526 20.136L 133.414 17.664C 133.846 17.904 134.43 18.144 135.166 18.384C 135.902 18.624 136.79 18.744 137.83 18.744Z"/>
<path id="path8_fill" d="M 69.1896 25.48C 68.6136 25.48 68.0162 25.4373 67.3976 25.352C 66.8002 25.288 66.2242 25.192 65.6696 25.064C 65.1362 24.9573 64.6456 24.84 64.1976 24.712C 63.7496 24.5627 63.4082 24.424 63.1736 24.296L 63.9416 21C 64.3896 21.2133 65.0402 21.4587 65.8936 21.736C 66.7469 21.992 67.8029 22.12 69.0616 22.12C 70.7469 22.12 71.9629 21.8 72.7096 21.16C 73.4562 20.4987 73.8296 19.624 73.8296 18.536C 73.8296 17.832 73.6802 17.2453 73.3816 16.776C 73.1042 16.3067 72.7096 15.9333 72.1976 15.656C 71.7069 15.3573 71.1309 15.1547 70.4696 15.048C 69.8296 14.92 69.1469 14.856 68.4216 14.856L 67.1096 14.856L 67.1096 11.72L 68.7096 11.72C 69.2002 11.72 69.6909 11.6773 70.1816 11.592C 70.6936 11.4853 71.1522 11.3147 71.5576 11.08C 71.9629 10.824 72.2936 10.4933 72.5496 10.088C 72.8056 9.68267 72.9336 9.16 72.9336 8.52C 72.9336 8.008 72.8376 7.57067 72.6456 7.208C 72.4536 6.84533 72.1976 6.54667 71.8776 6.312C 71.5789 6.07733 71.2269 5.90667 70.8216 5.8C 70.4162 5.69333 69.9896 5.64 69.5416 5.64C 68.5816 5.64 67.7282 5.78933 66.9816 6.088C 66.2349 6.36533 65.5736 6.68533 64.9976 7.048L 63.5896 4.168C 63.8882 3.976 64.2509 3.77333 64.6776 3.56C 65.1042 3.34667 65.5736 3.144 66.0856 2.952C 66.6189 2.76 67.1842 2.61067 67.7816 2.504C 68.3789 2.376 69.0082 2.312 69.6696 2.312C 70.9069 2.312 71.9736 2.46133 72.8696 2.76C 73.7656 3.05867 74.5016 3.48533 75.0776 4.04C 75.6749 4.57333 76.1122 5.21333 76.3896 5.96C 76.6882 6.68533 76.8376 7.48533 76.8376 8.36C 76.8376 9.384 76.5496 10.3013 75.9736 11.112C 75.4189 11.9227 74.6936 12.5413 73.7976 12.968C 74.9496 13.3733 75.8989 14.0453 76.6456 14.984C 77.4136 15.9227 77.7976 17.128 77.7976 18.6C 77.7976 19.5813 77.6269 20.4987 77.2856 21.352C 76.9442 22.184 76.4216 22.9093 75.7176 23.528C 75.0136 24.1253 74.1176 24.6053 73.0296 24.968C 71.9629 25.3093 70.6829 25.48 69.1896 25.48ZM 96.6188 13.896C 96.6188 17.6293 95.9361 20.4987 94.5708 22.504C 93.2055 24.488 91.3175 25.48 88.9068 25.48C 86.4961 25.48 84.6081 24.488 83.2428 22.504C 81.8775 20.4987 81.1948 17.6293 81.1948 13.896C 81.1948 12.04 81.3655 10.3973 81.7068 8.968C 82.0695 7.51733 82.5815 6.30133 83.2428 5.32C 83.9255 4.33867 84.7361 3.592 85.6748 3.08C 86.6348 2.568 87.7121 2.312 88.9068 2.312C 91.3175 2.312 93.2055 3.31467 94.5708 5.32C 95.9361 7.304 96.6188 10.1627 96.6188 13.896ZM 92.6188 13.896C 92.6188 12.744 92.5548 11.6667 92.4268 10.664C 92.2988 9.66133 92.0855 8.79733 91.7868 8.072C 91.5095 7.32533 91.1361 6.73867 90.6668 6.312C 90.1975 5.88533 89.6108 5.672 88.9068 5.672C 88.2028 5.672 87.6055 5.88533 87.1148 6.312C 86.6455 6.73867 86.2615 7.32533 85.9628 8.072C 85.6855 8.79733 85.4828 9.66133 85.3548 10.664C 85.2481 11.6667 85.1948 12.744 85.1948 13.896C 85.1948 15.048 85.2481 16.1253 85.3548 17.128C 85.4828 18.1307 85.6855 19.0053 85.9628 19.752C 86.2615 20.4773 86.6455 21.0533 87.1148 21.48C 87.6055 21.9067 88.2028 22.12 88.9068 22.12C 89.6108 22.12 90.1975 21.9067 90.6668 21.48C 91.1361 21.0533 91.5095 20.4773 91.7868 19.752C 92.0855 19.0053 92.2988 18.1307 92.4268 17.128C 92.5548 16.1253 92.6188 15.048 92.6188 13.896ZM 99.664 14.216L 105.36 14.216L 105.36 7.944L 108.816 7.944L 108.816 14.216L 114.512 14.216L 114.512 17.48L 108.816 17.48L 108.816 23.752L 105.36 23.752L 105.36 17.48L 99.664 17.48L 99.664 14.216ZM 117.845 14.216L 123.541 14.216L 123.541 7.944L 126.997 7.944L 126.997 14.216L 132.693 14.216L 132.693 17.48L 126.997 17.48L 126.997 23.752L 123.541 23.752L 123.541 17.48L 117.845 17.48L 117.845 14.216ZM 56.6226 56.912C 57.3906 56.912 57.9506 56.824 58.3026 56.648C 58.6546 56.456 58.8306 56.136 58.8306 55.688C 58.8306 55.272 58.6386 54.928 58.2546 54.656C 57.8866 54.384 57.2706 54.088 56.4066 53.768C 55.8786 53.576 55.3906 53.376 54.9426 53.168C 54.5106 52.944 54.1346 52.688 53.8146 52.4C 53.4946 52.112 53.2386 51.768 53.0466 51.368C 52.8706 50.952 52.7826 50.448 52.7826 49.856C 52.7826 48.704 53.2066 47.8 54.0546 47.144C 54.9026 46.472 56.0546 46.136 57.5106 46.136C 58.2466 46.136 58.9506 46.208 59.6226 46.352C 60.2946 46.48 60.7986 46.608 61.1346 46.736L 60.6066 49.088C 60.2866 48.944 59.8786 48.816 59.3826 48.704C 58.8866 48.576 58.3106 48.512 57.6546 48.512C 57.0626 48.512 56.5826 48.616 56.2146 48.824C 55.8466 49.016 55.6626 49.32 55.6626 49.736C 55.6626 49.944 55.6946 50.128 55.7586 50.288C 55.8386 50.448 55.9666 50.6 56.1426 50.744C 56.3186 50.872 56.5506 51.008 56.8386 51.152C 57.1266 51.28 57.4786 51.416 57.8946 51.56C 58.5826 51.816 59.1666 52.072 59.6466 52.328C 60.1266 52.568 60.5186 52.848 60.8226 53.168C 61.1426 53.472 61.3746 53.824 61.5186 54.224C 61.6626 54.624 61.7346 55.104 61.7346 55.664C 61.7346 56.864 61.2866 57.776 60.3906 58.4C 59.5106 59.008 58.2466 59.312 56.5986 59.312C 55.4946 59.312 54.6066 59.216 53.9346 59.024C 53.2626 58.848 52.7906 58.704 52.5186 58.592L 53.0226 56.168C 53.4546 56.344 53.9666 56.512 54.5586 56.672C 55.1666 56.832 55.8546 56.912 56.6226 56.912ZM 64.2971 43.136L 67.2011 42.656L 67.2011 46.448L 71.6651 46.448L 71.6651 48.872L 67.2011 48.872L 67.2011 53.984C 67.2011 54.992 67.3611 55.712 67.6811 56.144C 68.0011 56.576 68.5451 56.792 69.3131 56.792C 69.8411 56.792 70.3051 56.736 70.7051 56.624C 71.1211 56.512 71.4491 56.408 71.6891 56.312L 72.1691 58.616C 71.8331 58.76 71.3931 58.904 70.8491 59.048C 70.3051 59.208 69.6651 59.288 68.9291 59.288C 68.0331 59.288 67.2811 59.168 66.6731 58.928C 66.0811 58.688 65.6091 58.344 65.2571 57.896C 64.9051 57.432 64.6571 56.88 64.5131 56.24C 64.3691 55.584 64.2971 54.84 64.2971 54.008L 64.2971 43.136ZM 78.882 56.96C 79.778 56.96 80.458 56.912 80.922 56.816L 80.922 53.6C 80.762 53.552 80.53 53.504 80.226 53.456C 79.922 53.408 79.586 53.384 79.218 53.384C 78.898 53.384 78.57 53.408 78.234 53.456C 77.914 53.504 77.618 53.592 77.346 53.72C 77.09 53.848 76.882 54.032 76.722 54.272C 76.562 54.496 76.482 54.784 76.482 55.136C 76.482 55.824 76.698 56.304 77.13 56.576C 77.562 56.832 78.146 56.96 78.882 56.96ZM 78.642 46.136C 79.602 46.136 80.41 46.256 81.066 46.496C 81.722 46.736 82.242 47.072 82.626 47.504C 83.026 47.936 83.306 48.464 83.466 49.088C 83.642 49.696 83.73 50.368 83.73 51.104L 83.73 58.712C 83.282 58.808 82.602 58.92 81.69 59.048C 80.794 59.192 79.778 59.264 78.642 59.264C 77.89 59.264 77.202 59.192 76.578 59.048C 75.954 58.904 75.418 58.672 74.97 58.352C 74.538 58.032 74.194 57.616 73.938 57.104C 73.698 56.592 73.578 55.96 73.578 55.208C 73.578 54.488 73.714 53.88 73.986 53.384C 74.274 52.888 74.658 52.488 75.138 52.184C 75.618 51.864 76.17 51.64 76.794 51.512C 77.434 51.368 78.098 51.296 78.786 51.296C 79.106 51.296 79.442 51.32 79.794 51.368C 80.146 51.4 80.522 51.464 80.922 51.56L 80.922 51.08C 80.922 50.744 80.882 50.424 80.802 50.12C 80.722 49.816 80.578 49.552 80.37 49.328C 80.178 49.088 79.914 48.904 79.578 48.776C 79.258 48.648 78.85 48.584 78.354 48.584C 77.682 48.584 77.066 48.632 76.506 48.728C 75.946 48.824 75.49 48.936 75.138 49.064L 74.778 46.712C 75.146 46.584 75.682 46.456 76.386 46.328C 77.09 46.2 77.842 46.136 78.642 46.136ZM 94.4321 49.064C 94.1921 48.984 93.8561 48.904 93.4241 48.824C 93.0081 48.728 92.5201 48.68 91.9601 48.68C 91.6401 48.68 91.2961 48.712 90.9281 48.776C 90.5761 48.84 90.3281 48.896 90.1841 48.944L 90.1841 59L 87.2801 59L 87.2801 47.048C 87.8401 46.84 88.5361 46.648 89.3681 46.472C 90.2161 46.28 91.1521 46.184 92.1761 46.184C 92.3681 46.184 92.5921 46.2 92.8481 46.232C 93.1041 46.248 93.3601 46.28 93.6161 46.328C 93.8721 46.36 94.1201 46.408 94.3601 46.472C 94.6001 46.52 94.7921 46.568 94.9361 46.616L 94.4321 49.064ZM 96.8095 43.136L 99.7135 42.656L 99.7135 46.448L 104.177 46.448L 104.177 48.872L 99.7135 48.872L 99.7135 53.984C 99.7135 54.992 99.8735 55.712 100.193 56.144C 100.513 56.576 101.057 56.792 101.825 56.792C 102.353 56.792 102.817 56.736 103.217 56.624C 103.633 56.512 103.961 56.408 104.201 56.312L 104.681 58.616C 104.345 58.76 103.905 58.904 103.361 59.048C 102.817 59.208 102.177 59.288 101.441 59.288C 100.545 59.288 99.7935 59.168 99.1855 58.928C 98.5935 58.688 98.1215 58.344 97.7695 57.896C 97.4175 57.432 97.1695 56.88 97.0255 56.24C 96.8815 55.584 96.8095 54.84 96.8095 54.008L 96.8095 43.136ZM 117.274 58.616C 116.714 58.76 115.986 58.904 115.09 59.048C 114.194 59.208 113.21 59.288 112.138 59.288C 111.13 59.288 110.282 59.144 109.594 58.856C 108.922 58.568 108.378 58.168 107.962 57.656C 107.562 57.144 107.274 56.536 107.098 55.832C 106.922 55.112 106.834 54.328 106.834 53.48L 106.834 46.448L 109.738 46.448L 109.738 53.024C 109.738 54.368 109.93 55.328 110.314 55.904C 110.714 56.48 111.402 56.768 112.378 56.768C 112.73 56.768 113.098 56.752 113.482 56.72C 113.882 56.688 114.178 56.648 114.37 56.6L 114.37 46.448L 117.274 46.448L 117.274 58.616ZM 129.292 52.784C 129.292 51.488 128.996 50.48 128.404 49.76C 127.828 49.04 126.892 48.68 125.596 48.68C 125.324 48.68 125.036 48.696 124.732 48.728C 124.444 48.744 124.156 48.792 123.868 48.872L 123.868 56.048C 124.124 56.224 124.46 56.392 124.876 56.552C 125.308 56.696 125.764 56.768 126.244 56.768C 127.3 56.768 128.068 56.408 128.548 55.688C 129.044 54.968 129.292 54 129.292 52.784ZM 132.268 52.736C 132.268 53.696 132.14 54.576 131.884 55.376C 131.644 56.176 131.292 56.864 130.828 57.44C 130.364 58.016 129.78 58.464 129.076 58.784C 128.388 59.104 127.604 59.264 126.724 59.264C 126.132 59.264 125.588 59.192 125.092 59.048C 124.596 58.904 124.188 58.744 123.868 58.568L 123.868 63.44L 120.964 63.44L 120.964 46.856C 121.556 46.696 122.284 46.544 123.148 46.4C 124.012 46.256 124.924 46.184 125.884 46.184C 126.876 46.184 127.764 46.336 128.548 46.64C 129.332 46.944 129.996 47.384 130.54 47.96C 131.1 48.52 131.524 49.208 131.812 50.024C 132.116 50.824 132.268 51.728 132.268 52.736ZM 138.399 56.912C 139.167 56.912 139.727 56.824 140.079 56.648C 140.431 56.456 140.607 56.136 140.607 55.688C 140.607 55.272 140.415 54.928 140.031 54.656C 139.663 54.384 139.047 54.088 138.183 53.768C 137.655 53.576 137.167 53.376 136.719 53.168C 136.287 52.944 135.911 52.688 135.591 52.4C 135.271 52.112 135.015 51.768 134.823 51.368C 134.647 50.952 134.559 50.448 134.559 49.856C 134.559 48.704 134.983 47.8 135.831 47.144C 136.679 46.472 137.831 46.136 139.287 46.136C 140.023 46.136 140.727 46.208 141.399 46.352C 142.071 46.48 142.575 46.608 142.911 46.736L 142.383 49.088C 142.063 48.944 141.655 48.816 141.159 48.704C 140.663 48.576 140.087 48.512 139.431 48.512C 138.839 48.512 138.359 48.616 137.991 48.824C 137.623 49.016 137.439 49.32 137.439 49.736C 137.439 49.944 137.471 50.128 137.535 50.288C 137.615 50.448 137.743 50.6 137.919 50.744C 138.095 50.872 138.327 51.008 138.615 51.152C 138.903 51.28 139.255 51.416 139.671 51.56C 140.359 51.816 140.943 52.072 141.423 52.328C 141.903 52.568 142.295 52.848 142.599 53.168C 142.919 53.472 143.151 53.824 143.295 54.224C 143.439 54.624 143.511 55.104 143.511 55.664C 143.511 56.864 143.063 57.776 142.167 58.4C 141.287 59.008 140.023 59.312 138.375 59.312C 137.271 59.312 136.383 59.216 135.711 59.024C 135.039 58.848 134.567 58.704 134.295 58.592L 134.799 56.168C 135.231 56.344 135.743 56.512 136.335 56.672C 136.943 56.832 137.631 56.912 138.399 56.912Z"/>
<path id="path9_fill" fill-rule="evenodd" d="M 134 268C 208.006 268 268 208.006 268 134C 268 59.9938 208.006 0 134 0C 59.9938 0 0 59.9938 0 134C 0 208.006 59.9938 268 134 268Z"/>
<path id="path10_fill" d="M 24.7783 -2.16048e-08L 16.2524 26.7413L 0 26.7413L 8.52596 -2.16048e-08L 24.7783 -2.16048e-08Z"/>
<path id="path11_fill" d="M 24.7783 0L 16.2524 26.7413L -1.46042e-08 26.7413L 8.52596 0L 24.7783 0Z"/>
<path id="path12_fill" d="M 71.0219 43L 48.8003 43C 44.3709 43 40.1229 41.1969 36.9908 37.9873L -2.69149e-08 0.0812946L 0.0814214 0L 22.1423 0C 26.5717 0 30.8197 1.80312 33.9518 5.0127L 71.0219 43Z"/>
<path id="path13_fill" d="M 15.2115 21.7963L 1.8179 3.07136L 1.8179 21.7963L 4.28037e-08 21.7963L 4.28037e-08 1.18228e-08L 1.84999 1.18228e-08L 15.1794 18.4635L 15.1794 1.18228e-08L 16.9973 1.18228e-08L 16.9973 21.7963L 15.2115 21.7963L 15.2115 21.7963Z"/>
<path id="path14_fill" d="M 10.9753 -2.1496e-09L 8.70798 -2.1496e-09L -1.45511e-08 21.795L 2.11127 21.795L 4.21432 16.4409L 4.82222 14.7404L 9.82521 1.99513L 14.861 14.7404L 6.11199 14.7404L 6.11199 16.4409L 15.4689 16.4409L 17.572 21.795L 19.6833 21.795L 10.9753 -2.1496e-09Z"/>
<path id="path15_fill" d="M 6.95229 21.7963L 6.95229 1.69928L -3.48377e-08 1.69928L -3.48377e-08 1.18228e-08L 15.7538 1.18228e-08L 15.7538 1.69928L 8.80148 1.69928L 8.80148 21.7963L 6.95229 21.7963Z"/>
<path id="path16_fill" d="M 1.44449e-08 21.7963L 1.44449e-08 1.18228e-08L 1.81789 1.18228e-08L 1.81789 21.7963L 1.44449e-08 21.7963L 1.44449e-08 21.7963Z"/>
<path id="path17_fill" d="M -2.27295e-08 -2.1496e-09L -2.27295e-08 8.41829L 1.81554 8.41829L 1.81554 1.70051L 13.4891 1.70051L 13.4891 -2.1496e-09L -2.27295e-08 -2.1496e-09ZM -2.27295e-08 9.77363L -2.27295e-08 21.795L 1.81554 21.795L 1.81554 11.4741L 13.2673 11.4741L 13.2673 9.77363L -2.27295e-08 9.77363Z"/>
</defs>
</svg>
