<?xml version="1.0" encoding="utf-8"?>
<!-- Generator: Adobe Illustrator 21.0.0, SVG Export Plug-In . SVG Version: 6.00 Build 0)  -->
<svg version="1.1" id="Layer_1" xmlns="http://www.w3.org/2000/svg" xmlns:xlink="http://www.w3.org/1999/xlink" x="0px" y="0px"
	 viewBox="0 0 113.4 113.4" style="enable-background:new 0 0 113.4 113.4;" xml:space="preserve">
<style type="text/css">
	.st0{fill:#01CBD6;}
</style>
<g>
	<path class="st0" d="M76.4,71.9h-38c-8,0-14.5-6.5-14.5-14.5s6.5-14.5,14.5-14.5c1.6,0,3.1,0.3,4.6,0.7c2.1-2,5-3,8-2.4
		c2.9-3.5,7.3-5.6,11.9-5.6c6.8,0,12.8,4.5,14.7,10.9c6.4,0.6,11.5,6,11.5,12.6C89.1,66.2,83.4,71.9,76.4,71.9z M38.4,46.5
		c-6,0-10.9,4.9-10.9,10.9s4.9,10.9,10.9,10.9h38c5,0,9-4.1,9-9c0-5-4.1-9-9-9l-1.7,0.1l-0.3-1.5c-1.1-5.5-5.9-9.4-11.5-9.4
		c-3.9,0-7.5,1.9-9.7,5.1l-0.8,1.1l-1.3-0.5c-0.6-0.2-1.2-0.3-1.8-0.3c-1.7,0-3.3,0.8-4.3,2.2L44.1,48l-1.3-0.6
		C41.4,46.9,39.9,46.5,38.4,46.5z"/>
	<path class="st0" d="M88,95.4H25l-6.5-6.5v-63l6.5-6.5h63l6.5,6.5v63L88,95.4z M26.5,91.8h60l4.4-4.4v-60L86.5,23h-60l-4.4,4.4v60
		L26.5,91.8z"/>
	<path class="st0" d="M20.3,33.9h-3.6v-3.6h3.6V33.9z M13.1,33.9H9.5v-3.6h3.6V33.9z M5.9,33.9H2.2v-3.6h3.6V33.9z"/>
	<rect x="2.2" y="37.5" class="st0" width="18.1" height="3.6"/>
	<rect x="2.2" y="44.7" class="st0" width="18.1" height="3.6"/>
	<path class="st0" d="M20.3,55.6h-3.6V52h3.6V55.6z M13.1,55.6H9.5V52h3.6V55.6z M5.9,55.6H2.2V52h3.6V55.6z"/>
	<path class="st0" d="M20.3,62.8h-3.6v-3.6h3.6V62.8z M13.1,62.8H9.5v-3.6h3.6V62.8z M5.9,62.8H2.2v-3.6h3.6V62.8z"/>
	<rect x="2.2" y="66.4" class="st0" width="18.1" height="3.6"/>
	<rect x="2.2" y="73.7" class="st0" width="18.1" height="3.6"/>
	<path class="st0" d="M20.3,84.5h-3.6v-3.6h3.6V84.5z M13.1,84.5H9.5v-3.6h3.6V84.5z M5.9,84.5H2.2v-3.6h3.6V84.5z"/>
	<path class="st0" d="M110.8,33.9h-3.6v-3.6h3.6V33.9z M103.5,33.9h-3.6v-3.6h3.6V33.9z M96.3,33.9h-3.6v-3.6h3.6V33.9z"/>
	<rect x="92.7" y="37.5" class="st0" width="18.1" height="3.6"/>
	<rect x="92.7" y="44.7" class="st0" width="18.1" height="3.6"/>
	<path class="st0" d="M110.8,55.6h-3.6V52h3.6V55.6z M103.5,55.6h-3.6V52h3.6V55.6z M96.3,55.6h-3.6V52h3.6V55.6z"/>
	<path class="st0" d="M110.8,62.8h-3.6v-3.6h3.6V62.8z M103.5,62.8h-3.6v-3.6h3.6V62.8z M96.3,62.8h-3.6v-3.6h3.6V62.8z"/>
	<rect x="92.7" y="66.4" class="st0" width="18.1" height="3.6"/>
	<rect x="92.7" y="73.7" class="st0" width="18.1" height="3.6"/>
	<path class="st0" d="M110.8,84.5h-3.6v-3.6h3.6V84.5z M103.5,84.5h-3.6v-3.6h3.6V84.5z M96.3,84.5h-3.6v-3.6h3.6V84.5z"/>
	<path class="st0" d="M83.6,21.2H80v-3.6h3.6V21.2z M83.6,14H80v-3.6h3.6V14z M83.6,6.7H80V3.1h3.6V6.7z"/>
	<rect x="72.8" y="3.1" class="st0" width="3.6" height="18.1"/>
	<rect x="65.5" y="3.1" class="st0" width="3.6" height="18.1"/>
	<path class="st0" d="M61.9,21.2h-3.6v-3.6h3.6V21.2z M61.9,14h-3.6v-3.6h3.6V14z M61.9,6.7h-3.6V3.1h3.6V6.7z"/>
	<path class="st0" d="M54.7,21.2h-3.6v-3.6h3.6V21.2z M54.7,14h-3.6v-3.6h3.6V14z M54.7,6.7h-3.6V3.1h3.6V6.7z"/>
	<rect x="43.8" y="3.1" class="st0" width="3.6" height="18.1"/>
	<rect x="36.6" y="3.1" class="st0" width="3.6" height="18.1"/>
	<path class="st0" d="M33,21.2h-3.6v-3.6H33V21.2z M33,14h-3.6v-3.6H33V14z M33,6.7h-3.6V3.1H33V6.7z"/>
	<path class="st0" d="M83.6,111.7H80V108h3.6V111.7z M83.6,104.4H80v-3.6h3.6V104.4z M83.6,97.2H80v-3.6h3.6V97.2z"/>
	<rect x="72.8" y="93.6" class="st0" width="3.6" height="18.1"/>
	<rect x="65.5" y="93.6" class="st0" width="3.6" height="18.1"/>
	<path class="st0" d="M61.9,111.7h-3.6V108h3.6V111.7z M61.9,104.4h-3.6v-3.6h3.6V104.4z M61.9,97.2h-3.6v-3.6h3.6V97.2z"/>
	<path class="st0" d="M54.7,111.7h-3.6V108h3.6V111.7z M54.7,104.4h-3.6v-3.6h3.6V104.4z M54.7,97.2h-3.6v-3.6h3.6V97.2z"/>
	<rect x="43.8" y="93.6" class="st0" width="3.6" height="18.1"/>
	<rect x="36.6" y="93.6" class="st0" width="3.6" height="18.1"/>
	<path class="st0" d="M33,111.7h-3.6V108H33V111.7z M33,104.4h-3.6v-3.6H33V104.4z M33,97.2h-3.6v-3.6H33V97.2z"/>
	<rect x="33" y="35.7" class="st0" width="3.6" height="9"/>
	<path class="st0" d="M34.8,39.3c-4,0-7.2-3.2-7.2-7.2s3.2-7.2,7.2-7.2s7.2,3.2,7.2,7.2S38.8,39.3,34.8,39.3z M34.8,28.5
		c-2,0-3.6,1.6-3.6,3.6s1.6,3.6,3.6,3.6c2,0,3.6-1.6,3.6-3.6S36.8,28.5,34.8,28.5z"/>
	<path class="st0" d="M78.2,39.3c-4,0-7.2-3.2-7.2-7.2s3.2-7.2,7.2-7.2s7.2,3.2,7.2,7.2S82.2,39.3,78.2,39.3z M78.2,28.5
		c-2,0-3.6,1.6-3.6,3.6s1.6,3.6,3.6,3.6c2,0,3.6-1.6,3.6-3.6S80.2,28.5,78.2,28.5z"/>
	<rect x="76.4" y="37.5" class="st0" width="3.6" height="10.9"/>
	<rect x="78.2" y="70.1" class="st0" width="3.6" height="9"/>
	<path class="st0" d="M80,90c-4,0-7.2-3.2-7.2-7.2s3.2-7.2,7.2-7.2s7.2,3.2,7.2,7.2S84,90,80,90z M80,79.1c-2,0-3.6,1.6-3.6,3.6
		c0,2,1.6,3.6,3.6,3.6c2,0,3.6-1.6,3.6-3.6C83.6,80.7,82,79.1,80,79.1z"/>
	<path class="st0" d="M34.8,90c-4,0-7.2-3.2-7.2-7.2s3.2-7.2,7.2-7.2s7.2,3.2,7.2,7.2S38.8,90,34.8,90z M34.8,79.1
		c-2,0-3.6,1.6-3.6,3.6c0,2,1.6,3.6,3.6,3.6c2,0,3.6-1.6,3.6-3.6C38.4,80.7,36.8,79.1,34.8,79.1z"/>
	<rect x="33" y="70.1" class="st0" width="3.6" height="7.2"/>
</g>
</svg>
