<?xml version="1.0" encoding="utf-8"?>
<!-- Generator: Adobe Illustrator 21.0.0, SVG Export Plug-In . SVG Version: 6.00 Build 0)  -->
<svg version="1.1" id="Layer_1" xmlns="http://www.w3.org/2000/svg" xmlns:xlink="http://www.w3.org/1999/xlink" x="0px" y="0px"
	 viewBox="0 0 113.4 113.4" style="enable-background:new 0 0 113.4 113.4;" xml:space="preserve">
<style type="text/css">
	.st0{fill:#01CBD6;}
</style>
<g>
	<path class="st0" d="M24.4,111.1H6.7v-12c-3.3-2.7-5.3-6.7-5.3-11C1.4,80.3,7.8,74,15.6,74c7.8,0,14.2,6.4,14.2,14.2
		c0,4.3-2,8.4-5.3,11V111.1z M10.2,107.6h10.6V97.4l0.8-0.5c2.8-2,4.6-5.2,4.6-8.7c0-5.9-4.8-10.6-10.6-10.6
		c-5.9,0-10.6,4.8-10.6,10.6c0,3.5,1.7,6.7,4.6,8.7l0.8,0.5V107.6z"/>
	<rect x="4.9" y="100.5" class="st0" width="21.2" height="3.5"/>
	<rect x="4.9" y="107.6" class="st0" width="21.2" height="3.5"/>
	<rect x="13.8" y="89.9" class="st0" width="3.5" height="12.4"/>
	<path class="st0" d="M15.6,93.4c-2.9,0-5.3-2.4-5.3-5.3s2.4-5.3,5.3-5.3c2.9,0,5.3,2.4,5.3,5.3S18.5,93.4,15.6,93.4z M15.6,86.4
		c-1,0-1.8,0.8-1.8,1.8s0.8,1.8,1.8,1.8c1,0,1.8-0.8,1.8-1.8S16.5,86.4,15.6,86.4z"/>
	<path class="st0" d="M65.1,111.1H47.4v-12c-3.3-2.7-5.3-6.7-5.3-11c0-7.8,6.4-14.2,14.2-14.2c7.8,0,14.2,6.4,14.2,14.2
		c0,4.3-2,8.4-5.3,11V111.1z M50.9,107.6h10.6V97.4l0.8-0.5c2.8-2,4.6-5.2,4.6-8.7c0-5.9-4.8-10.6-10.6-10.6
		c-5.9,0-10.6,4.8-10.6,10.6c0,3.5,1.7,6.7,4.6,8.7l0.8,0.5V107.6z"/>
	<rect x="45.6" y="100.5" class="st0" width="21.2" height="3.5"/>
	<rect x="45.6" y="107.6" class="st0" width="21.2" height="3.5"/>
	<rect x="54.5" y="89.9" class="st0" width="3.5" height="12.4"/>
	<path class="st0" d="M56.3,93.4c-2.9,0-5.3-2.4-5.3-5.3s2.4-5.3,5.3-5.3c2.9,0,5.3,2.4,5.3,5.3S59.2,93.4,56.3,93.4z M56.3,86.4
		c-1,0-1.8,0.8-1.8,1.8s0.8,1.8,1.8,1.8c1,0,1.8-0.8,1.8-1.8S57.2,86.4,56.3,86.4z"/>
	<path class="st0" d="M105.8,111.1H88.1v-12c-3.3-2.7-5.3-6.7-5.3-11C82.8,80.3,89.1,74,97,74c7.8,0,14.2,6.4,14.2,14.2
		c0,4.3-2,8.4-5.3,11V111.1z M91.6,107.6h10.6V97.4l0.8-0.5c2.8-2,4.6-5.2,4.6-8.7c0-5.9-4.8-10.6-10.6-10.6
		c-5.9,0-10.6,4.8-10.6,10.6c0,3.5,1.7,6.7,4.6,8.7l0.8,0.5V107.6z"/>
	<rect x="86.3" y="100.5" class="st0" width="21.2" height="3.5"/>
	<rect x="86.3" y="107.6" class="st0" width="21.2" height="3.5"/>
	<rect x="95.2" y="89.9" class="st0" width="3.5" height="12.4"/>
	<path class="st0" d="M97,93.4c-2.9,0-5.3-2.4-5.3-5.3s2.4-5.3,5.3-5.3c2.9,0,5.3,2.4,5.3,5.3S99.9,93.4,97,93.4z M97,86.4
		c-1,0-1.8,0.8-1.8,1.8s0.8,1.8,1.8,1.8c1,0,1.8-0.8,1.8-1.8S97.9,86.4,97,86.4z"/>
	<path class="st0" d="M17.3,75.7h-3.5c0-4.9,4-8.8,8.8-8.8h3.5v-7.1h3.5v10.6h-7.1C19.7,70.4,17.3,72.8,17.3,75.7z"/>
	<rect x="54.5" y="63.4" class="st0" width="3.5" height="12.4"/>
	<path class="st0" d="M98.7,75.7h-3.5c0-2.9-2.4-5.3-5.3-5.3h-7.1v-8.8h3.5v5.3h3.5C94.8,66.9,98.7,70.9,98.7,75.7z"/>
	<path class="st0" d="M28.8,61.6V58c6.3,0,11.5-5.2,11.5-11.5c0-4.3-2.4-8.2-6.2-10.2l1.6-3.1c5,2.6,8,7.7,8,13.3
		C43.9,54.8,37.1,61.6,28.8,61.6z"/>
	<path class="st0" d="M97,48.3h-3.5c0-6.3-5.2-11.5-11.5-11.5v-3.5C90.2,33.3,97,40,97,48.3z"/>
	<path class="st0" d="M73.1,60.5c-3.9-2.8-6.3-7.4-6.3-12.2h3.5c0,3.7,1.8,7.2,4.8,9.4L73.1,60.5z"/>
	<path class="st0" d="M54.5,20.9h-3.5c0-10.7,8.7-19.5,19.5-19.5V5C61.6,5,54.5,12.1,54.5,20.9z"/>
	<path class="st0" d="M62.4,66.9c-5,0-9.5-2.4-12.3-6.5c-2.6,1.9-5.7,2.9-8.9,2.9c-2.9,0-5.7-0.8-8.1-2.4c-1.4,0.4-2.8,0.6-4.3,0.6
		c-8.3,0-15-6.7-15-15c0-1.9,0.3-3.7,1-5.4C13,38.6,12,35.5,12,32.4c0-6.7,4.5-12.6,10.8-14.4c1-7.4,7.3-13,14.9-13c1,0,2,0.1,3,0.3
		c2.5-2.5,5.8-3.9,9.3-3.9c3.4,0,6.6,1.3,9.1,3.6c3.3-2.3,7.2-3.6,11.3-3.6c9.6,0,17.8,7.2,19.2,16.5c6.4,1.8,10.9,7.7,10.9,14.4
		c0,4.1-1.6,7.9-4.5,10.7c0.6,1.7,0.9,3.4,0.9,5.2c0,8.3-6.7,15-15,15c-2.8,0-5.4-0.7-7.7-2.1C71.4,64.8,67.1,66.9,62.4,66.9z
		 M51.1,54.7l1.1,2.2c2,4,5.9,6.4,10.3,6.4c4,0,7.7-2.1,9.8-5.5l1-1.7l1.6,1.2c2,1.6,4.5,2.4,7.1,2.4c6.3,0,11.5-5.2,11.5-11.5
		c0-1.7-0.4-3.4-1.1-4.9l-0.6-1.2l1.1-0.9c2.7-2.2,4.2-5.4,4.2-8.9c0-5.5-3.9-10.2-9.3-11.3l-1.3-0.3l-0.1-1.3
		C85.6,11.4,78.6,5,70.4,5C66.6,5,63,6.3,60.1,8.8l-1.4,1.2l-1.1-1.4C55.7,6.3,53,5,50.1,5c-2.9,0-5.6,1.3-7.4,3.4l-0.7,0.9
		l-1.1-0.3c-1-0.3-2.1-0.4-3.1-0.4c-6.1,0-11.2,4.8-11.5,11l-0.1,1.4l-1.4,0.3c-5.3,1.1-9.2,5.8-9.2,11.3c0,2.7,0.9,5.3,2.7,7.3
		l0.7,0.9l-0.5,1c-0.7,1.6-1.1,3.2-1.1,4.9c0,6.3,5.2,11.5,11.5,11.5c1.3,0,2.6-0.2,3.9-0.7l0.9-0.3l0.8,0.6c2,1.5,4.3,2.2,6.8,2.2
		c3.1,0,5.9-1.2,8.1-3.3L51.1,54.7z"/>
</g>
</svg>
