<?xml version="1.0" encoding="utf-8"?>
<!-- Generator: Adobe Illustrator 21.0.0, SVG Export Plug-In . SVG Version: 6.00 Build 0)  -->
<svg version="1.1" id="Layer_1" xmlns="http://www.w3.org/2000/svg" xmlns:xlink="http://www.w3.org/1999/xlink" x="0px" y="0px"
	 viewBox="0 0 113.4 113.4" style="enable-background:new 0 0 113.4 113.4;" xml:space="preserve">
<style type="text/css">
	.st0{fill:#01CBD6;}
</style>
<g>
	<path class="st0" d="M10,111.1c-3.9,0-7.1-3.2-7.1-7.1C3,100.2,6.2,97,10,97c3.9,0,7.1,3.2,7.1,7.1C17.1,108,13.9,111.1,10,111.1z
		 M10,100.5c-1.9,0-3.5,1.6-3.5,3.5c0,1.9,1.6,3.5,3.5,3.5c1.9,0,3.5-1.6,3.5-3.5C13.6,102.1,12,100.5,10,100.5z"/>
	<path class="st0" d="M25.9,95.2c-3.9,0-7.1-3.2-7.1-7.1c0-3.9,3.2-7.1,7.1-7.1c3.9,0,7.1,3.2,7.1,7.1C33,92.1,29.8,95.2,25.9,95.2z
		 M25.9,84.6c-1.9,0-3.5,1.6-3.5,3.5c0,1.9,1.6,3.5,3.5,3.5c1.9,0,3.5-1.6,3.5-3.5C29.5,86.2,27.9,84.6,25.9,84.6z"/>
	<path class="st0" d="M11.8,98.8H8.3c0-6.8,5.5-12.4,12.4-12.4v3.5C15.8,89.9,11.8,93.9,11.8,98.8z"/>
	<path class="st0" d="M43.6,98.8h-3.5c0-4.9-4-8.8-8.8-8.8v-3.5C38.1,86.4,43.6,91.9,43.6,98.8z"/>
	<path class="st0" d="M41.8,111.1c-3.9,0-7.1-3.2-7.1-7.1c0-3.9,3.2-7.1,7.1-7.1c3.9,0,7.1,3.2,7.1,7.1
		C48.9,108,45.7,111.1,41.8,111.1z M41.8,100.5c-1.9,0-3.5,1.6-3.5,3.5c0,1.9,1.6,3.5,3.5,3.5c1.9,0,3.5-1.6,3.5-3.5
		C45.4,102.1,43.8,100.5,41.8,100.5z"/>
	<path class="st0" d="M73.6,111.1c-3.9,0-7.1-3.2-7.1-7.1c0-3.9,3.2-7.1,7.1-7.1c3.9,0,7.1,3.2,7.1,7.1
		C80.7,108,77.5,111.1,73.6,111.1z M73.6,100.5c-1.9,0-3.5,1.6-3.5,3.5c0,1.9,1.6,3.5,3.5,3.5c1.9,0,3.5-1.6,3.5-3.5
		C77.1,102.1,75.6,100.5,73.6,100.5z"/>
	<path class="st0" d="M89.5,95.2c-3.9,0-7.1-3.2-7.1-7.1c0-3.9,3.2-7.1,7.1-7.1c3.9,0,7.1,3.2,7.1,7.1
		C96.6,92.1,93.4,95.2,89.5,95.2z M89.5,84.6c-1.9,0-3.5,1.6-3.5,3.5c0,1.9,1.6,3.5,3.5,3.5c1.9,0,3.5-1.6,3.5-3.5
		C93,86.2,91.5,84.6,89.5,84.6z"/>
	<path class="st0" d="M75.4,98.8h-3.5c0-6.8,5.5-12.4,12.4-12.4v3.5C79.3,89.9,75.4,93.9,75.4,98.8z"/>
	<path class="st0" d="M107.2,98.8h-3.5c0-4.9-4-8.8-8.8-8.8v-3.5C101.6,86.4,107.2,91.9,107.2,98.8z"/>
	<path class="st0" d="M105.4,111.1c-3.9,0-7.1-3.2-7.1-7.1c0-3.9,3.2-7.1,7.1-7.1c3.9,0,7.1,3.2,7.1,7.1
		C112.5,108,109.3,111.1,105.4,111.1z M105.4,100.5c-1.9,0-3.5,1.6-3.5,3.5c0,1.9,1.6,3.5,3.5,3.5c1.9,0,3.5-1.6,3.5-3.5
		C108.9,102.1,107.3,100.5,105.4,100.5z"/>
	<path class="st0" d="M57.7,95.2c-3.9,0-7.1-3.2-7.1-7.1c0-3.9,3.2-7.1,7.1-7.1c3.9,0,7.1,3.2,7.1,7.1
		C64.8,92.1,61.6,95.2,57.7,95.2z M57.7,84.6c-1.9,0-3.5,1.6-3.5,3.5c0,1.9,1.6,3.5,3.5,3.5c1.9,0,3.5-1.6,3.5-3.5
		C61.3,86.2,59.7,84.6,57.7,84.6z"/>
	<path class="st0" d="M43.6,98.8h-3.5c0-6.8,5.5-12.4,12.4-12.4v3.5C47.6,89.9,43.6,93.9,43.6,98.8z"/>
	<path class="st0" d="M75.4,98.8h-3.5c0-4.9-4-8.8-8.8-8.8v-3.5C69.8,86.4,75.4,91.9,75.4,98.8z"/>
	<path class="st0" d="M10,111.1c-3.9,0-7.1-3.2-7.1-7.1C3,100.2,6.2,97,10,97c3.9,0,7.1,3.2,7.1,7.1C17.1,108,13.9,111.1,10,111.1z
		 M10,100.5c-1.9,0-3.5,1.6-3.5,3.5c0,1.9,1.6,3.5,3.5,3.5c1.9,0,3.5-1.6,3.5-3.5C13.6,102.1,12,100.5,10,100.5z"/>
	<path class="st0" d="M25.9,95.2c-3.9,0-7.1-3.2-7.1-7.1c0-3.9,3.2-7.1,7.1-7.1c3.9,0,7.1,3.2,7.1,7.1C33,92.1,29.8,95.2,25.9,95.2z
		 M25.9,84.6c-1.9,0-3.5,1.6-3.5,3.5c0,1.9,1.6,3.5,3.5,3.5c1.9,0,3.5-1.6,3.5-3.5C29.5,86.2,27.9,84.6,25.9,84.6z"/>
	<path class="st0" d="M11.8,98.8H8.3c0-6.8,5.5-12.4,12.4-12.4v3.5C15.8,89.9,11.8,93.9,11.8,98.8z"/>
	<path class="st0" d="M43.6,98.8h-3.5c0-4.9-4-8.8-8.8-8.8v-3.5C38.1,86.4,43.6,91.9,43.6,98.8z"/>
	<path class="st0" d="M41.8,111.1c-3.9,0-7.1-3.2-7.1-7.1c0-3.9,3.2-7.1,7.1-7.1c3.9,0,7.1,3.2,7.1,7.1
		C48.9,108,45.7,111.1,41.8,111.1z M41.8,100.5c-1.9,0-3.5,1.6-3.5,3.5c0,1.9,1.6,3.5,3.5,3.5c1.9,0,3.5-1.6,3.5-3.5
		C45.4,102.1,43.8,100.5,41.8,100.5z"/>
	<path class="st0" d="M57.7,95.2c-3.9,0-7.1-3.2-7.1-7.1c0-3.9,3.2-7.1,7.1-7.1c3.9,0,7.1,3.2,7.1,7.1
		C64.8,92.1,61.6,95.2,57.7,95.2z M57.7,84.6c-1.9,0-3.5,1.6-3.5,3.5c0,1.9,1.6,3.5,3.5,3.5c1.9,0,3.5-1.6,3.5-3.5
		C61.3,86.2,59.7,84.6,57.7,84.6z"/>
	<path class="st0" d="M43.6,98.8h-3.5c0-6.8,5.5-12.4,12.4-12.4v3.5C47.6,89.9,43.6,93.9,43.6,98.8z"/>
	<path class="st0" d="M25.9,95.2c-3.9,0-7.1-3.2-7.1-7.1c0-3.9,3.2-7.1,7.1-7.1c3.9,0,7.1,3.2,7.1,7.1C33,92.1,29.8,95.2,25.9,95.2z
		 M25.9,84.6c-1.9,0-3.5,1.6-3.5,3.5c0,1.9,1.6,3.5,3.5,3.5c1.9,0,3.5-1.6,3.5-3.5C29.5,86.2,27.9,84.6,25.9,84.6z"/>
	<path class="st0" d="M41.8,79.3c-3.9,0-7.1-3.2-7.1-7.1s3.2-7.1,7.1-7.1c3.9,0,7.1,3.2,7.1,7.1S45.7,79.3,41.8,79.3z M41.8,68.7
		c-1.9,0-3.5,1.6-3.5,3.5c0,1.9,1.6,3.5,3.5,3.5c1.9,0,3.5-1.6,3.5-3.5C45.4,70.3,43.8,68.7,41.8,68.7z"/>
	<path class="st0" d="M27.7,82.9h-3.5c0-6.8,5.5-12.4,12.4-12.4V74C31.7,74,27.7,78,27.7,82.9z"/>
	<path class="st0" d="M59.5,82.9H56c0-4.9-4-8.8-8.8-8.8v-3.5C53.9,70.5,59.5,76.1,59.5,82.9z"/>
	<path class="st0" d="M57.7,95.2c-3.9,0-7.1-3.2-7.1-7.1c0-3.9,3.2-7.1,7.1-7.1c3.9,0,7.1,3.2,7.1,7.1
		C64.8,92.1,61.6,95.2,57.7,95.2z M57.7,84.6c-1.9,0-3.5,1.6-3.5,3.5c0,1.9,1.6,3.5,3.5,3.5c1.9,0,3.5-1.6,3.5-3.5
		C61.3,86.2,59.7,84.6,57.7,84.6z"/>
	<path class="st0" d="M73.6,79.3c-3.9,0-7.1-3.2-7.1-7.1s3.2-7.1,7.1-7.1c3.9,0,7.1,3.2,7.1,7.1S77.5,79.3,73.6,79.3z M73.6,68.7
		c-1.9,0-3.5,1.6-3.5,3.5c0,1.9,1.6,3.5,3.5,3.5c1.9,0,3.5-1.6,3.5-3.5C77.1,70.3,75.6,68.7,73.6,68.7z"/>
	<path class="st0" d="M59.5,82.9H56c0-6.8,5.5-12.4,12.4-12.4V74C63.5,74,59.5,78,59.5,82.9z"/>
	<path class="st0" d="M91.3,82.9h-3.5c0-4.9-4-8.8-8.8-8.8v-3.5C85.7,70.5,91.3,76.1,91.3,82.9z"/>
	<path class="st0" d="M41.8,79.3c-3.9,0-7.1-3.2-7.1-7.1s3.2-7.1,7.1-7.1c3.9,0,7.1,3.2,7.1,7.1S45.7,79.3,41.8,79.3z M41.8,68.7
		c-1.9,0-3.5,1.6-3.5,3.5c0,1.9,1.6,3.5,3.5,3.5c1.9,0,3.5-1.6,3.5-3.5C45.4,70.3,43.8,68.7,41.8,68.7z"/>
	<path class="st0" d="M27.7,82.9h-3.5c0-6.8,5.5-12.4,12.4-12.4V74C31.7,74,27.7,78,27.7,82.9z"/>
	<path class="st0" d="M59.5,82.9H56c0-4.9-4-8.8-8.8-8.8v-3.5C53.9,70.5,59.5,76.1,59.5,82.9z"/>
	<path class="st0" d="M73.6,79.3c-3.9,0-7.1-3.2-7.1-7.1s3.2-7.1,7.1-7.1c3.9,0,7.1,3.2,7.1,7.1S77.5,79.3,73.6,79.3z M73.6,68.7
		c-1.9,0-3.5,1.6-3.5,3.5c0,1.9,1.6,3.5,3.5,3.5c1.9,0,3.5-1.6,3.5-3.5C77.1,70.3,75.6,68.7,73.6,68.7z"/>
	<path class="st0" d="M59.5,82.9H56c0-6.8,5.5-12.4,12.4-12.4V74C63.5,74,59.5,78,59.5,82.9z"/>
	<path class="st0" d="M93,65.2H73.6v-3.5H93c8.8,0,15.9-7.1,15.9-15.9c0-8.2-6.1-15-14.3-15.8L93,29.8l0-1.8
		c0-12.5-10.3-22.8-23-22.8c-8.8,0-16.9,5.2-20.7,13.2l-0.9,1.9L46.8,19c-1.5-1-3.2-1.5-4.9-1.5c-3.5,0-6.6,2-8,5.2l-0.6,1.4
		l-1.5-0.5c-1.9-0.6-3.8-0.9-5.7-0.9c-10.7,0-19.4,8.7-19.4,19.4s8.7,19.4,19.4,19.4h15.9v3.5H25.9c-12.7,0-23-10.3-23-23
		s10.3-23,23-23c1.8,0,3.6,0.2,5.3,0.6c2.2-3.6,6.2-5.9,10.5-5.9c1.8,0,3.6,0.4,5.2,1.1C51.7,6.9,60.5,1.6,70.1,1.6
		c14.1,0,25.7,11.1,26.4,25c9.2,1.7,15.9,9.6,15.9,19.1C112.5,56.5,103.8,65.2,93,65.2z"/>
	<path class="st0" d="M57.7,63.4c-3.9,0-7.1-3.2-7.1-7.1s3.2-7.1,7.1-7.1c3.9,0,7.1,3.2,7.1,7.1S61.6,63.4,57.7,63.4z M57.7,52.8
		c-1.9,0-3.5,1.6-3.5,3.5s1.6,3.5,3.5,3.5c1.9,0,3.5-1.6,3.5-3.5S59.7,52.8,57.7,52.8z"/>
	<path class="st0" d="M43.6,67h-3.5c0-6.8,5.5-12.4,12.4-12.4v3.5C47.6,58.1,43.6,62.1,43.6,67z"/>
	<path class="st0" d="M75.4,67h-3.5c0-4.9-4-8.8-8.8-8.8v-3.5C69.8,54.6,75.4,60.2,75.4,67z"/>
	<path class="st0" d="M57.7,63.4c-3.9,0-7.1-3.2-7.1-7.1s3.2-7.1,7.1-7.1c3.9,0,7.1,3.2,7.1,7.1S61.6,63.4,57.7,63.4z M57.7,52.8
		c-1.9,0-3.5,1.6-3.5,3.5s1.6,3.5,3.5,3.5c1.9,0,3.5-1.6,3.5-3.5S59.7,52.8,57.7,52.8z"/>
	<path class="st0" d="M43.6,67h-3.5c0-6.8,5.5-12.4,12.4-12.4v3.5C47.6,58.1,43.6,62.1,43.6,67z"/>
	<path class="st0" d="M57.7,63.4c-3.9,0-7.1-3.2-7.1-7.1s3.2-7.1,7.1-7.1c3.9,0,7.1,3.2,7.1,7.1S61.6,63.4,57.7,63.4z M57.7,52.8
		c-1.9,0-3.5,1.6-3.5,3.5s1.6,3.5,3.5,3.5c1.9,0,3.5-1.6,3.5-3.5S59.7,52.8,57.7,52.8z"/>
	<path class="st0" d="M86,45.8c-3.9,0-7.1-3.2-7.1-7.1s3.2-7.1,7.1-7.1c3.9,0,7.1,3.2,7.1,7.1S89.9,45.8,86,45.8z M86,35.2
		c-1.9,0-3.5,1.6-3.5,3.5c0,1.9,1.6,3.5,3.5,3.5c1.9,0,3.5-1.6,3.5-3.5C89.5,36.8,87.9,35.2,86,35.2z"/>
	<path class="st0" d="M86,45.8c-3.9,0-7.1-3.2-7.1-7.1s3.2-7.1,7.1-7.1c3.9,0,7.1,3.2,7.1,7.1S89.9,45.8,86,45.8z M86,35.2
		c-1.9,0-3.5,1.6-3.5,3.5c0,1.9,1.6,3.5,3.5,3.5c1.9,0,3.5-1.6,3.5-3.5C89.5,36.8,87.9,35.2,86,35.2z"/>
	<path class="st0" d="M86,45.8c-3.9,0-7.1-3.2-7.1-7.1s3.2-7.1,7.1-7.1c3.9,0,7.1,3.2,7.1,7.1S89.9,45.8,86,45.8z M86,35.2
		c-1.9,0-3.5,1.6-3.5,3.5c0,1.9,1.6,3.5,3.5,3.5c1.9,0,3.5-1.6,3.5-3.5C89.5,36.8,87.9,35.2,86,35.2z"/>
	<path class="st0" d="M73.6,58.1h-3.5v-3.5h3.5V58.1z M66.6,58.1H63v-3.5h3.5V58.1z M77.6,57.6l-1-3.4c1-0.3,1.9-0.7,2.7-1.3l1.9,3
		C80.1,56.6,78.9,57.2,77.6,57.6z M84.3,53.3L81.6,51c0.7-0.8,1.2-1.6,1.6-2.5l3.2,1.5C85.9,51.1,85.2,52.3,84.3,53.3z M87.6,46
		l-3.5-0.5c0.1-0.5,0.1-1,0.1-1.5h3.5C87.7,44.7,87.7,45.4,87.6,46z"/>
	<path class="st0" d="M29.5,45.8c-3.9,0-7.1-3.2-7.1-7.1s3.2-7.1,7.1-7.1c3.9,0,7.1,3.2,7.1,7.1S33.4,45.8,29.5,45.8z M29.5,35.2
		c-1.9,0-3.5,1.6-3.5,3.5c0,1.9,1.6,3.5,3.5,3.5c1.9,0,3.5-1.6,3.5-3.5C33,36.8,31.4,35.2,29.5,35.2z"/>
	<path class="st0" d="M29.5,45.8c-3.9,0-7.1-3.2-7.1-7.1s3.2-7.1,7.1-7.1c3.9,0,7.1,3.2,7.1,7.1S33.4,45.8,29.5,45.8z M29.5,35.2
		c-1.9,0-3.5,1.6-3.5,3.5c0,1.9,1.6,3.5,3.5,3.5c1.9,0,3.5-1.6,3.5-3.5C33,36.8,31.4,35.2,29.5,35.2z"/>
	<path class="st0" d="M29.5,45.8c-3.9,0-7.1-3.2-7.1-7.1s3.2-7.1,7.1-7.1c3.9,0,7.1,3.2,7.1,7.1S33.4,45.8,29.5,45.8z M29.5,35.2
		c-1.9,0-3.5,1.6-3.5,3.5c0,1.9,1.6,3.5,3.5,3.5c1.9,0,3.5-1.6,3.5-3.5C33,36.8,31.4,35.2,29.5,35.2z"/>
	<path class="st0" d="M52.4,58.1h-3.5v-3.5h3.5V58.1z M45.4,58.1h-3.5v-3.5h3.5V58.1z M37.9,57.6c-1.3-0.4-2.5-0.9-3.7-1.7l1.9-3
		c0.9,0.5,1.8,1,2.7,1.3L37.9,57.6z M31.2,53.3c-0.9-1-1.6-2.2-2.2-3.4l3.2-1.5c0.4,0.9,1,1.8,1.6,2.5L31.2,53.3z M27.8,46
		c-0.1-0.7-0.1-1.3-0.1-2h3.5c0,0.5,0,1,0.1,1.5L27.8,46z"/>
</g>
</svg>
