<svg width="46" height="45" viewBox="0 0 46 45" version="1.1" xmlns="http://www.w3.org/2000/svg" xmlns:xlink="http://www.w3.org/1999/xlink">
<title>Page 1</title>
<desc>Created using Figma</desc>
<g id="Canvas" transform="translate(1297 -10225)">
<g id="Page 1">
<g id="Group 3">
<mask id="mask0_outline" mask-type="alpha">
<g id="Clip 2">
<use xlink:href="#path0_fill" transform="translate(-1281.53 10261.3)" fill="#FFFFFF"/>
</g>
</mask>
<g id="Fill 1" mask="url(#mask0_outline)">
<use xlink:href="#path1_fill" transform="translate(-1281.53 10261.3)" fill="#00E3F1"/>
</g>
</g>
<g id="Fill 4">
<use xlink:href="#path2_fill" transform="translate(-1273.55 10263.2)" fill="#00E3F1"/>
</g>
<g id="Fill 6">
<use xlink:href="#path2_fill" transform="translate(-1273.55 10266.7)" fill="#00E3F1"/>
</g>
<g id="Fill 7">
<use xlink:href="#path3_fill" transform="translate(-1266.06 10239.1)" fill="#00E3F1"/>
</g>
<g id="Fill 8">
<use xlink:href="#path3_fill" transform="translate(-1291.38 10239.1)" fill="#00E3F1"/>
</g>
<g id="Fill 9">
<use xlink:href="#path4_fill" transform="translate(-1297 10244)" fill="#00E3F1"/>
</g>
<g id="Fill 10">
<use xlink:href="#path5_fill" transform="translate(-1280.46 10244)" fill="#00E3F1"/>
</g>
<g id="Fill 11">
<use xlink:href="#path6_fill" transform="translate(-1254.72 10241.8)" fill="#00E3F1"/>
</g>
<g id="Fill 12">
<use xlink:href="#path7_fill" transform="translate(-1296.94 10225)" fill="#00E3F1"/>
</g>
<g id="Fill 13">
<use xlink:href="#path8_fill" transform="translate(-1258.1 10234.5)" fill="#00E3F1"/>
</g>
<g id="Fill 14">
<use xlink:href="#path9_fill" transform="translate(-1282.08 10233.3)" fill="#00E3F1"/>
</g>
<g id="Fill 15">
<use xlink:href="#path10_fill" transform="translate(-1286.03 10225.4)" fill="#00E3F1"/>
</g>
<g id="Fill 16">
<use xlink:href="#path11_fill" transform="translate(-1294.92 10225.6)" fill="#00E3F1"/>
</g>
</g>
</g>
<defs>
<path id="path0_fill" fill-rule="evenodd" d="M 4.996e-15 8.68198L 8.68219 8.68198L 8.68219 0L 0 0L 0 8.68198L 4.996e-15 8.68198Z"/>
<path id="path1_fill" fill-rule="evenodd" d="M 4.34109 1.40625C 2.7232 1.40625 1.40625 2.7225 1.40625 4.34109C 1.40625 5.95969 2.7232 7.27594 4.34109 7.27594L 7.27594 7.27594L 7.27594 1.40625L 4.34109 1.40625ZM 8.68219 8.68219L 4.34109 8.68219C 1.94766 8.68219 0 6.73453 0 4.34109C 0 1.94766 1.94766 0 4.34109 0L 8.68219 0L 8.68219 8.68219Z"/>
<path id="path2_fill" fill-rule="evenodd" d="M 0 1.40625L 3.26672 1.40625L 3.26672 0L 0 0L 0 1.40625Z"/>
<path id="path3_fill" fill-rule="evenodd" d="M 4.92188 1.40625C 2.98336 1.40625 1.40625 2.98336 1.40625 4.92188C 1.40625 6.86039 2.98336 8.4375 4.92188 8.4375C 6.86039 8.4375 8.4375 6.86039 8.4375 4.92188C 8.4375 2.98336 6.86039 1.40625 4.92188 1.40625ZM 4.92188 9.84375C 2.20781 9.84375 0 7.63523 0 4.92188C 0 2.20852 2.20781 0 4.92188 0C 7.63594 0 9.84375 2.20852 9.84375 4.92188C 9.84375 7.63523 7.63594 9.84375 4.92188 9.84375Z"/>
<path id="path4_fill" fill-rule="evenodd" d="M 16.1719 22.5007L 4.57031 22.5007C 2.05031 22.5007 0 20.4504 0 17.9297C 0 15.4097 2.05031 13.3594 4.57031 13.3594L 40.7812 13.3594C 42.3323 13.3594 43.5938 12.098 43.5938 10.5469C 43.5938 8.99578 42.3323 7.73438 40.7812 7.73438L 28.8281 7.73438C 26.1141 7.73438 23.9062 5.52586 23.9062 2.8125L 23.9062 0L 25.3125 0L 25.3125 2.8125C 25.3125 4.75102 26.8896 6.32812 28.8281 6.32812L 40.7812 6.32812C 43.1079 6.32812 45 8.22023 45 10.5469C 45 12.8735 43.1079 14.7656 40.7812 14.7656L 4.57031 14.7656C 2.82586 14.7656 1.40625 16.1852 1.40625 17.9297C 1.40625 19.6741 2.82586 21.0945 4.57031 21.0945L 16.1719 21.0945L 16.1719 22.5007Z"/>
<path id="path5_fill" fill-rule="evenodd" d="M 0 1.40625L 12.548 1.40625L 12.548 0L 0 0L 0 1.40625Z"/>
<path id="path6_fill" fill-rule="evenodd" d="M 2.37727 3.56133L 0 3.56133L 0 2.15508L 1.17422 2.15508L 1.51312 0L 2.9018 0.217969L 2.37727 3.56133Z"/>
<path id="path7_fill" fill-rule="evenodd" d="M 2.80498 20.1291L 0.924119 17.787C 0.043806 16.4159 -0.223381 14.7248 0.190759 13.1484L 1.50068 8.16539C 2.76349 3.35742 7.11795 0 12.089 0L 21.6761 0C 24.0415 0 26.2106 1.29164 27.3377 3.37148L 29.2692 6.93773C 29.6601 7.66055 30.3766 8.1675 31.1873 8.29688L 37.5288 9.30867L 37.3066 10.6973L 30.9658 9.68484C 29.7269 9.48797 28.6301 8.71172 28.0324 7.60781L 26.1009 4.04156C 25.2199 2.41664 23.5247 1.40625 21.6761 1.40625L 12.089 1.40625C 7.75638 1.40625 3.96162 4.33266 2.86052 8.52258L 1.5506 13.5056C 1.23912 14.6911 1.43529 15.9609 2.08779 16.9966L 3.90045 19.2473L 2.80498 20.1291Z"/>
<path id="path8_fill" fill-rule="evenodd" d="M 1.43896 1.43848C 1.55076 1.81887 1.95576 2.55645 2.7749 3.37559C 3.59404 4.19473 4.33162 4.59973 4.71201 4.71152C 4.60021 4.33113 4.19521 3.59285 3.37607 2.77371C 2.55764 1.95527 1.82006 1.55027 1.43896 1.43848ZM 4.9159 6.15159C 4.61637 6.15159 4.24582 6.06933 3.78879 5.85277C 3.14543 5.54902 2.43246 5.02237 1.78067 4.36987C 0.422228 3.01144 -0.548788 1.24097 0.345587 0.345187C 1.24207 -0.548485 3.01184 0.422531 4.37028 1.77956C 5.02278 2.43136 5.54942 3.14503 5.85387 3.78909C 6.37629 4.8923 6.11543 5.49417 5.80465 5.80425C 5.62254 5.98636 5.34059 6.15159 4.9159 6.15159Z"/>
<path id="path9_fill" fill-rule="evenodd" d="M 0 1.40625L 12.5016 1.40625L 12.5016 0L 0 0L 0 1.40625Z"/>
<path id="path10_fill" fill-rule="evenodd" d="M 8.98923 19.2994L 7.58298 19.2994L 7.58298 10.8907C 7.58298 10.0034 6.86088 9.28195 5.97353 9.28195L 3.0183 9.28195C 1.96572 9.28195 1.00666 8.74687 0.453297 7.8518C -0.100062 6.95602 -0.149984 5.85914 0.32111 4.91766L 2.77994 0L 4.03783 0.628594L 1.579 5.54625C 1.32798 6.04898 1.354 6.63398 1.64931 7.11211C 1.94463 7.59023 2.4565 7.8757 3.0183 7.8757L 5.97353 7.8757C 7.63642 7.8757 8.98923 9.22852 8.98923 10.8907L 8.98923 19.2994Z"/>
<path id="path11_fill" fill-rule="evenodd" d="M 1.18828 9.12023L 0 9.12023L 0 7.71398L 1.18828 7.71398C 2.72742 7.71398 4.16109 6.82102 4.83961 5.44008L 7.82859 0L 9.06117 0.677109L 6.08695 6.08836C 5.18766 7.9193 3.25969 9.12023 1.18828 9.12023Z"/>
</defs>
</svg>
