<svg width="43" height="42" viewBox="0 0 43 42" version="1.1" xmlns="http://www.w3.org/2000/svg" xmlns:xlink="http://www.w3.org/1999/xlink">
<title>Page 1</title>
<desc>Created using Figma</desc>
<g id="Canvas" transform="translate(1151 -10130)">
<g id="Page 1">
<g id="Fill 1">
<use xlink:href="#path0_fill" transform="translate(-1151 10170.7)" fill="#00E3F1"/>
</g>
<g id="Fill 2">
<use xlink:href="#path1_fill" transform="translate(-1130.39 10170.7)" fill="#00E3F1"/>
</g>
<g id="Fill 3">
<use xlink:href="#path2_fill" transform="translate(-1133.02 10162.2)" fill="#00E3F1"/>
</g>
<g id="Fill 4">
<use xlink:href="#path3_fill" transform="translate(-1140.24 10145.8)" fill="#00E3F1"/>
</g>
<g id="Fill 5">
<use xlink:href="#path4_fill" transform="translate(-1141.78 10158.7)" fill="#00E3F1"/>
</g>
<g id="Fill 6">
<use xlink:href="#path5_fill" transform="translate(-1144.65 10164.7)" fill="#00E3F1"/>
</g>
<g id="Fill 7">
<use xlink:href="#path6_fill" transform="translate(-1140.89 10130)" fill="#00E3F1"/>
</g>
</g>
</g>
<defs>
<path id="path0_fill" fill-rule="evenodd" d="M 0 1.3125L 14.4375 1.3125L 14.4375 0L 0 0L 0 1.3125Z"/>
<path id="path1_fill" fill-rule="evenodd" d="M 21 1.3125L 22.3125 1.3125L 22.3125 0L 21 0L 21 1.3125ZM 18.375 1.3125L 19.6882 1.3125L 19.6882 0L 18.375 0L 18.375 1.3125ZM 15.75 1.3125L 17.0625 1.3125L 17.0625 0L 15.75 0L 15.75 1.3125ZM 13.125 1.3125L 14.4382 1.3125L 14.4382 0L 13.125 0L 13.125 1.3125ZM 10.5 1.3125L 11.8125 1.3125L 11.8125 0L 10.5 0L 10.5 1.3125ZM 7.87561 1.3125L 9.18811 1.3125L 9.18811 0L 7.87561 0L 7.87561 1.3125ZM 5.25 1.3125L 6.5625 1.3125L 6.5625 0L 5.25 0L 5.25 1.3125ZM 2.62561 1.3125L 3.93811 1.3125L 3.93811 0L 2.62561 0L 2.62561 1.3125ZM 0 1.3125L 1.3125 1.3125L 1.3125 0L 0 0L 0 1.3125Z"/>
<path id="path2_fill" fill-rule="evenodd" d="M 0 7.56591L 0 0L 1.3125 0L 1.3125 5.55844L 5.25 3.83578L 5.25 0L 6.5625 0L 6.5625 4.69481L 0 7.56591Z"/>
<path id="path3_fill" fill-rule="evenodd" d="M 0 1.3125L 21 1.3125L 21 0L 0 0L 0 1.3125Z"/>
<path id="path4_fill" fill-rule="evenodd" d="M 5.95153 6.87881L 0 0.927938L 0.927938 0L 6.87947 5.95087L 5.95153 6.87881Z"/>
<path id="path5_fill" fill-rule="evenodd" d="M 8.09353 3.57131L 0 1.26197L 0.359625 0L 8.45316 2.30934L 8.09353 3.57131Z"/>
<path id="path6_fill" fill-rule="evenodd" d="M 21 0L 21 19.4768L 14.4375 28.665L 14.4375 31.5L 7.875 31.5L 7.875 28.665L 1.3125 19.4768L 1.3125 0L 0 0L 0 19.8975L 6.5625 29.0857L 6.5625 32.8125L 15.75 32.8125L 15.75 29.0857L 22.3125 19.8975L 22.3125 0L 21 0Z"/>
</defs>
</svg>
