<svg width="43" height="42" viewBox="0 0 43 42" version="1.1" xmlns="http://www.w3.org/2000/svg" xmlns:xlink="http://www.w3.org/1999/xlink">
<title>Page 1</title>
<desc>Created using Figma</desc>
<g id="Canvas" transform="translate(1439 -10130)">
<g id="Page 1">
<g id="Fill 1">
<use xlink:href="#path0_fill" transform="translate(-1421.93 10158.9)" fill="#00E3F1"/>
</g>
<g id="Fill 2">
<use xlink:href="#path1_fill" transform="translate(-1418 10159.5)" fill="#00E3F1"/>
</g>
<g id="Fill 3">
<use xlink:href="#path2_fill" transform="translate(-1416.68 10135.3)" fill="#00E3F1"/>
</g>
<g id="Group 20">
<g id="Fill 4">
<use xlink:href="#path3_fill" transform="translate(-1421.93 10145.7)" fill="#00E3F1"/>
</g>
<g id="Fill 6">
<use xlink:href="#path4_fill" transform="translate(-1421.93 10135.2)" fill="#00E3F1"/>
</g>
<g id="Fill 8">
<use xlink:href="#path5_fill" transform="translate(-1430.46 10130)" fill="#00E3F1"/>
</g>
<mask id="mask0_outline" mask-type="alpha">
<g id="Clip 11">
<use xlink:href="#path6_fill" transform="translate(-1439 10130)" fill="#FFFFFF"/>
</g>
</mask>
<g id="Fill 10" mask="url(#mask0_outline)">
<use xlink:href="#path7_fill" transform="translate(-1406.18 10135.9)" fill="#00E3F1"/>
</g>
<g id="Fill 12" mask="url(#mask0_outline)">
<use xlink:href="#path8_fill" transform="translate(-1428.5 10135.2)" fill="#00E3F1"/>
</g>
<g id="Fill 13" mask="url(#mask0_outline)">
<use xlink:href="#path9_fill" transform="translate(-1439 10130)" fill="#00E3F1"/>
</g>
<g id="Fill 14" mask="url(#mask0_outline)">
<use xlink:href="#path10_fill" transform="translate(-1431.12 10132.6)" fill="#00E3F1"/>
</g>
<g id="Fill 15" mask="url(#mask0_outline)">
<use xlink:href="#path11_fill" transform="translate(-1427.84 10132.6)" fill="#00E3F1"/>
</g>
<g id="Fill 16" mask="url(#mask0_outline)">
<use xlink:href="#path12_fill" transform="translate(-1403.56 10168.1)" fill="#00E3F1"/>
</g>
<g id="Fill 17" mask="url(#mask0_outline)">
<use xlink:href="#path12_fill" transform="translate(-1408.81 10168.1)" fill="#00E3F1"/>
</g>
<g id="Fill 18" mask="url(#mask0_outline)">
<use xlink:href="#path13_fill" transform="translate(-1415.38 10137.9)" fill="#00E3F1"/>
</g>
<g id="Fill 19" mask="url(#mask0_outline)">
<use xlink:href="#path14_fill" transform="translate(-1427.84 10137.9)" fill="#00E3F1"/>
</g>
</g>
</g>
</g>
<defs>
<path id="path0_fill" fill-rule="evenodd" d="M 1.3125 6.5625L 10.5 6.5625L 10.5 1.3125L 1.3125 1.3125L 1.3125 6.5625ZM 0 7.875L 11.8125 7.875L 11.8125 0L 0 0L 0 7.875Z"/>
<path id="path1_fill" fill-rule="evenodd" d="M 0 6.5625L 1.3125 6.5625L 1.3125 0L 0 0L 0 6.5625Z"/>
<path id="path2_fill" fill-rule="evenodd" d="M 17.0625 31.4993L 8.53125 31.4993L 8.53125 30.1868L 15.75 30.1868L 15.75 1.3125L 0 1.3125L 0 0L 17.0625 0L 17.0625 31.4993Z"/>
<path id="path3_fill" fill-rule="evenodd" d="M 1.3125 11.8538L 0 11.8538L 0 11.1569C 0 9.34828 1.47197 7.87566 3.28125 7.87566L 10.5 7.87566C 11.2238 7.87566 11.8125 7.287 11.8125 6.56316C 11.8125 5.83997 11.2238 5.25066 10.5 5.25066L 5.25 5.25066C 3.80231 5.25066 2.625 4.074 2.625 2.62566L 2.625 0L 3.9375 0L 3.9375 2.62566C 3.9375 3.3495 4.52616 3.93816 5.25 3.93816L 10.5 3.93816C 11.9477 3.93816 13.125 5.11547 13.125 6.56316C 13.125 8.0115 11.9477 9.18816 10.5 9.18816L 3.28125 9.18816C 2.19581 9.18816 1.3125 10.0715 1.3125 11.1569L 1.3125 11.8538Z"/>
<path id="path4_fill" fill-rule="evenodd" d="M 2.625 9.1875L 3.9375 9.1875L 3.9375 6.5625L 5.25 6.5625L 5.25 1.3125L 1.3125 1.3125L 1.3125 6.5625L 2.625 6.5625L 2.625 9.1875ZM 5.25 10.5L 1.3125 10.5L 1.3125 7.875L 0 7.875L 0 0L 6.5625 0L 6.5625 7.875L 5.25 7.875L 5.25 10.5Z"/>
<path id="path5_fill" fill-rule="evenodd" d="M 33.4668 42L 0 42L 0 40.6875L 32.1543 40.6875L 32.1543 1.3125L 0 1.3125L 0 0L 33.4668 0L 33.4668 42Z"/>
<path id="path6_fill" fill-rule="evenodd" d="M 0 42L 42.0033 42L 42.0033 0L 0 0L 0 42Z"/>
<path id="path7_fill" fill-rule="evenodd" d="M 0 30.1875L 1.3125 30.1875L 1.3125 0L 0 0L 0 30.1875Z"/>
<path id="path8_fill" fill-rule="evenodd" d="M 5.25 31.5L 0 31.5L 0 0L 6.5625 0L 6.5625 1.3125L 1.3125 1.3125L 1.3125 30.1875L 5.25 30.1875L 5.25 31.5Z"/>
<path id="path9_fill" fill-rule="evenodd" d="M 8.5365 42L 0 42L 0 0L 8.5365 0L 8.5365 1.3125L 1.3125 1.3125L 1.3125 40.6875L 8.5365 40.6875L 8.5365 42Z"/>
<path id="path10_fill" fill-rule="evenodd" d="M 0 37.4062L 1.3125 37.4062L 1.3125 0L 0 0L 0 37.4062Z"/>
<path id="path11_fill" fill-rule="evenodd" d="M 0 1.3125L 1.3125 1.3125L 1.3125 0L 0 0L 0 1.3125ZM 2.625 1.3125L 3.9375 1.3125L 3.9375 0L 2.625 0L 2.625 1.3125ZM 5.25 1.3125L 6.5625 1.3125L 6.5625 0L 5.25 0L 5.25 1.3125ZM 7.875 1.3125L 9.1875 1.3125L 9.1875 0L 7.875 0L 7.875 1.3125ZM 10.5 1.3125L 11.8125 1.3125L 11.8125 0L 10.5 0L 10.5 1.3125ZM 13.125 1.3125L 14.4375 1.3125L 14.4375 0L 13.125 0L 13.125 1.3125ZM 15.75 1.3125L 17.0625 1.3125L 17.0625 0L 15.75 0L 15.75 1.3125ZM 18.375 1.3125L 19.6875 1.3125L 19.6875 0L 18.375 0L 18.375 1.3125ZM 21 1.3125L 22.3125 1.3125L 22.3125 0L 21 0L 21 1.3125ZM 23.625 1.3125L 24.9375 1.3125L 24.9375 0L 23.625 0L 23.625 1.3125ZM 26.25 1.3125L 27.5625 1.3125L 27.5625 0L 26.25 0L 26.25 1.3125Z"/>
<path id="path12_fill" fill-rule="evenodd" d="M 0 1.3125L 3.93553 1.3125L 3.93553 0L 0 0L 0 1.3125Z"/>
<path id="path13_fill" fill-rule="evenodd" d="M 0 1.3125L 13.1257 1.3125L 13.1257 0L 0 0L 0 1.3125Z"/>
<path id="path14_fill" fill-rule="evenodd" d="M 0 1.3125L 5.91019 1.3125L 5.91019 0L 0 0L 0 1.3125Z"/>
</defs>
</svg>
