<?xml version="1.0" encoding="utf-8"?>
<!-- Generator: Adobe Illustrator 21.0.0, SVG Export Plug-In . SVG Version: 6.00 Build 0)  -->
<svg version="1.1" id="Layer_1" xmlns="http://www.w3.org/2000/svg" xmlns:xlink="http://www.w3.org/1999/xlink" x="0px" y="0px"
	 viewBox="0 0 116.6 34.7" style="enable-background:new 0 0 116.6 34.7;" xml:space="preserve">
<style type="text/css">
	.st0{fill:#FFBF17;}
	.st1{fill:url(#SVGID_1_);}
	.st2{fill:url(#SVGID_2_);}
	.st3{fill:url(#SVGID_3_);}
	.st4{fill:url(#SVGID_4_);}
	.st5{fill:url(#SVGID_5_);}
	.st6{fill:url(#SVGID_6_);}
	.st7{fill:url(#SVGID_7_);}
	.st8{fill:url(#SVGID_8_);}
	.st9{fill:url(#SVGID_9_);}
	.st10{fill:url(#SVGID_10_);}
	.st11{fill:url(#SVGID_11_);}
	.st12{fill:url(#SVGID_12_);}
	.st13{fill:url(#SVGID_13_);}
	.st14{fill:url(#SVGID_14_);}
	.st15{fill:url(#SVGID_15_);}
</style>
<title>Group</title>
<desc>Created using Figma</desc>
<g>
	<path class="st0" d="M25.9,11.1L25.9,11.1C25.9,11.1,25.9,11,25.9,11.1c0-0.1,0-0.1,0-0.1l-5.1-6.4c0,0,0,0-0.1,0l-7.3-4.3
		c-0.1,0-0.1,0-0.2,0L5.6,4.2l-4.9,6.7c0,0.1-0.1,0.1,0,0.2L7,27.6c0,0,0,0,0,0.1l0.2,0.4c0.1-0.1,0.1-0.4,0.2-0.5l-0.1-0.1L1,11.2
		l5-6.3l7,3.2c0,0,0,0,0.1,0v25.3v1.1c0.1,0.1,0.1,0,0.2,0s0.1,0.1,0.2,0V8l7-3.1l1.7,8.7l-3.6-1.4c-0.1,0-0.1,0-0.2,0
		s-0.1,0.1-0.1,0.2L19.3,28c0,0,0,0.1,0,0L25.9,11.1C25.9,11.2,25.9,11.2,25.9,11.1z M22.3,19.5l-1.9,4.7L22.8,14l2.5-2.1L22.3,19.5
		z M22.8,13.6L21,5.4l4.5,5.7L22.8,13.6z M6.3,4.7L13,0.9v6.7L6.3,4.7z M13.3,0.7l6.8,3.9l-6.8,2.9V0.7z M19,12.6l3.5,1.4l-2.8,11.4
		L19,12.6z"/>
	
		<linearGradient id="SVGID_1_" gradientUnits="userSpaceOnUse" x1="8.438262e-03" y1="34.7037" x2="1.0115" y2="34.7037" gradientTransform="matrix(26.0387 0 0 26.0387 1.247073e-02 -886.3355)">
		<stop  offset="0" style="stop-color:#F88357"/>
		<stop  offset="0.544" style="stop-color:#F6C83C"/>
		<stop  offset="1" style="stop-color:#F8B754"/>
	</linearGradient>
	<path class="st1" d="M25.9,11.1h0.4v0c0-0.1,0-0.2-0.1-0.3c-0.1-0.1-0.2-0.1-0.3-0.1c-0.1,0-0.2,0-0.3,0.1
		c-0.1,0.1-0.1,0.2-0.1,0.3v0h0.7c0-0.1,0-0.1,0-0.1v-0.1L21,4.2h-0.2c0,0,0,0-0.1,0v0.4l0.2-0.3L13.2,0l0,0c-0.1,0,0.1,0,0,0l0,0
		L5.6,4.2l-5.4,6.6l0,0l0.4,0.1l-0.4-0.1l0,0l0.4,0.1l-0.4-0.1l0,0l0,0l0,0l0,0l0.5,0.3l-0.5-0.3l6.7,17v-0.1l0,0c0,0,0,0,0,0.1v0.2
		l0.2,0.2l0,0l0,0c0.1-0.1,0,0,0,0l0.2-0.2v-0.3v-0.3l-5.9-16l4.7-5.9L13,8.4h0.1c0,0,0,0,0.1,0V8.1h-0.4v25.3V34v0.2l0.4,0.5
		c0.1,0-0.2-0.3-0.1-0.2l0.2,0.1h0.1h0.3c0.1-0.1-0.4,0.2-0.3,0.1l0,0l-0.1,0L14,8.2l6.4-2.8l1.5,7.5l-3-1.2h-0.1
		c-0.1,0-0.1,0-0.2,0l-0.3,0.1c-0.1,0.1-0.2,0.2-0.2,0.3l0,0.2v0L19.3,28l0,0c0,0,0,0.1,0,0l0,0l0,0l7-16.7L25.9,11.1h-0.4v0.1
		c0,0.1,0,0.2,0.1,0.3c0.1,0.1,0.2,0.1,0.3,0.1c0.1,0,0.2,0,0.3-0.1c0.1-0.1,0.1-0.2,0.1-0.3v-0.1H25.9h-0.4v0.1
		c0,0.1,0,0.2,0.1,0.3c0.1,0.1,0.2,0.1,0.3,0.1c0.1,0,0.2,0,0.3-0.1c0.1-0.1,0.1-0.2,0.1-0.3v-0.1l-0.5-0.9L19.3,28l0,0
		c0,0.1,0,0,0,0l0,0l0,0l-0.5-15.7l-0.4,0l0.4,0l0-0.1l0,0l-0.2,0l0.2,0.1l0.1-0.1l-0.2,0l0.2,0.1l-0.2-0.2l0,0.3l0.2-0.1l-0.2-0.2
		l0,0.3c0.1,0,0.1,0,0.2,0v-0.4l-0.1,0.3l4.2,1.7l-2-9.8l-7.7,3.3v26.8h0.4h-0.3c-0.1,0.1-0.1,0-0.1,0h0.1h-0.1h0h0.1h-0.1h0.2l0,0
		h-0.2h0.2l0,0h0h0h0h0h0h0h0h0.1h-0.1h0h0.1h-0.1h0.1h0h-0.1h0.1h0h-0.3h0.4v-1.1V7.7h-0.4c-0.1,0-0.1,0-0.1,0v0.4l0.2-0.3L5.9,4.4
		l-5.3,6.7L7,27.8l0.1,0.2l0.3-0.3l-0.3-0.3C7,27.5,7,27.6,7,27.6v0.1l0.2,0.4l0.2-0.4l-0.1-0.2L7,27.8h0.4c0-0.1,0-0.1,0-0.1v-0.1
		L1.1,10.9L1,10.9L0.9,11L1,10.9l0,0L0.9,11L1,10.9l-0.3,0.2h0.3l0-0.2l-0.3,0.2h0.3H0.7L1,11.2l0-0.1H0.7L1,11.2l-0.2-0.1L1,11.2
		l0,0l-0.2-0.1L1,11.2l0,0c0,0,0.1-0.1,0.1-0.3H0.7L1,11.2l5.1-6.4l7.3-4.1l-0.2-0.3v0.4c0.1,0,0.1,0,0.2,0V0.3l-0.2,0.3L20.6,5h0.1
		c0.1,0,0.1,0,0.1,0V4.6l-0.3,0.2l5.1,6.4l0.3-0.2h-0.4c0,0,0,0,0,0.1h0.7v0c0-0.1,0-0.2-0.1-0.3c-0.1-0.1-0.2-0.1-0.3-0.1
		c-0.1,0-0.2,0-0.3,0.1c-0.1,0.1-0.1,0.2-0.1,0.3v0H25.9z M22.3,19.5l-0.3-0.1l-0.1,0.3l1.3-5.4l1.2-1.1l-2.4,6.2L22.3,19.5
		l-0.3-0.1L22.3,19.5l0.3,0.1l3.5-9.1l-3.7,3.2L20,24.1l0.7,0.2l1.9-4.7l0,0L22.3,19.5z M22.8,13.6l0.4-0.1l-1.4-6.6l3.3,4.2
		l-2.5,2.2L22.8,13.6l0.4-0.1L22.8,13.6l0.2,0.3l3-2.7l-5.7-7.3l2.2,10.4l0.5-0.4L22.8,13.6z M6.3,4.7L6.5,5l6.1-3.5v5.5L6.5,4.4
		L6.3,4.7L6.5,5L6.3,4.7L6.2,5l7.2,3.2v-8L5.5,4.7L6.2,5L6.3,4.7z M13.3,0.7L13.1,1l6.2,3.5l-5.6,2.3l0-6.2H13.3L13.1,1L13.3,0.7
		h-0.4V8L21,4.7L13.2,0l-0.3,0.8H13.3z M19,12.6l-0.1,0.3l3.2,1.3L20,22.9l-0.6-10.3L19,12.6l-0.1,0.3L19,12.6l-0.4,0L19.3,28
		l3.6-14.2L18.6,12l0,0.6L19,12.6z"/>
	<polyline class="st0" points="19,12.4 20.8,4.7 20.5,4.6 18.6,12.3 	"/>
	
		<linearGradient id="SVGID_2_" gradientUnits="userSpaceOnUse" x1="-8.890829e-02" y1="34.7" x2="0.9032" y2="34.7" gradientTransform="matrix(-3.1042 0 0 -3.1042 21.0262 115.9955)">
		<stop  offset="0" style="stop-color:#F88357"/>
		<stop  offset="0.544" style="stop-color:#F6C83C"/>
		<stop  offset="1" style="stop-color:#F8B754"/>
	</linearGradient>
	<polygon class="st2" points="19.4,12.4 21.3,4.6 20.7,4.2 20.3,4.1 18.2,12.2 19,12.3 20.9,4.7 20.5,4.6 20.4,5 20.7,5.1 20.8,4.7 
		20.5,4.6 18.6,12.3 19.4,12.4 	"/>
	<path class="st0" d="M13.7,33.2l7.1-28.5l-0.4-0.1l-7.3,29.2c0,0.1,0,0.7,0.1,0.7s0.2,0,0.2,0L13.7,33.2z"/>
	
		<linearGradient id="SVGID_3_" gradientUnits="userSpaceOnUse" x1="-3.101027e-02" y1="34.7022" x2="0.9613" y2="34.7022" gradientTransform="matrix(-8.5755 0 0 -8.5755 21.0271 316.828)">
		<stop  offset="0" style="stop-color:#F88357"/>
		<stop  offset="0.544" style="stop-color:#F6C83C"/>
		<stop  offset="1" style="stop-color:#F8B754"/>
	</linearGradient>
	<path class="st3" d="M13.7,33.2l0,1.3l7.6-29.9L21,4.2l-0.8-0.4l-7.5,29.8l0.5,1c0,0.1-0.1-0.3-0.1-0.2l-0.3-0.2l0.3,0.2
		c0.1,0,0.2,0,0.2,0h0.3l0.1-0.4l0,0L13.7,33.2L13.3,33L13,33.9l0.4,0.6l0,0c0,0-0.1,0-0.2,0l0,0h0.2h-0.2l0,0h0.2h-0.2h0.3
		c0,0,0,0.1-0.1,0h-0.2h0.3h0h0h0h0h0h0l-0.4-0.7l0.4,0.7l7.3-29.4l0,0l0.1-0.4l-0.4-0.1l-7.1,28.5L13.7,33.2L13.3,33L13.7,33.2z"/>
	<polyline class="st0" points="7.3,27.8 8.1,13.1 7.7,12.3 7,27.6 	"/>
	
		<linearGradient id="SVGID_4_" gradientUnits="userSpaceOnUse" x1="-0.1625" y1="34.4362" x2="0.6381" y2="34.4362" gradientTransform="matrix(-1.8964 0 0 -1.8964 8.125 84.5969)">
		<stop  offset="0" style="stop-color:#F88357"/>
		<stop  offset="0.544" style="stop-color:#F6C83C"/>
		<stop  offset="1" style="stop-color:#F8B754"/>
	</linearGradient>
	<polygon class="st4" points="7.4,27.8 8.5,13 7.4,10.8 7,27.6 7.3,27.7 8,12.3 7.7,12.3 7.3,12.4 7.7,13.1 7,27.7 7.4,27.8 	"/>
	<path class="st0" d="M7.3,27.6L4.5,13.9l1.6-9.2H5.7l-1.6,9.2c0,0,0,0,0,0.1L7,27.8L7.3,27.6z"/>
	
		<linearGradient id="SVGID_5_" gradientUnits="userSpaceOnUse" x1="9.248223e-03" y1="34.604" x2="0.9249" y2="34.604" gradientTransform="matrix(-4.0328 0 0 -4.0328 7.432 155.7202)">
		<stop  offset="0" style="stop-color:#F88357"/>
		<stop  offset="0.544" style="stop-color:#F6C83C"/>
		<stop  offset="1" style="stop-color:#F8B754"/>
	</linearGradient>
	<path class="st5" d="M7.3,27.6l0.1-0.1L4.9,13.9l1.7-9.6l-1-0.1l0,0l-1.9,9.6v0c0,0,0,0,0,0.1v0l3.4,14.1l0,0l0.2-0.2v-0.3
		L7.3,27.6l-0.1-0.4L7,27.4v0.4L7.3,27.6L4.5,13.9L4.1,14l0.4,0c0-0.1,0-0.1,0-0.1H4.1L4.5,14L6,5.1h0.1V4.7L5.6,4.2l-1.5,9.7
		L7,27.7L7.3,27.6l-0.1-0.4L7.3,27.6z"/>
	<path class="st0" d="M7.4,12.2l-3.1,1.5L0.9,11l-0.2,0.3l3.4,2.8c0.1,0,0.1,0.1,0.2,0l3.2-1.4l0.2-0.5H7.4z"/>
	
		<linearGradient id="SVGID_6_" gradientUnits="userSpaceOnUse" x1="-3.697880e-02" y1="34.7122" x2="0.963" y2="34.7122" gradientTransform="matrix(-8.1261 0 0 -8.1261 8.0487 294.4757)">
		<stop  offset="0" style="stop-color:#F88357"/>
		<stop  offset="0.544" style="stop-color:#F6C83C"/>
		<stop  offset="1" style="stop-color:#F8B754"/>
	</linearGradient>
	<path class="st6" d="M7.4,12.2l-0.2-0.3l-2.8,1.4l-3.7-3l-0.4,0.5l0,0L4,14.5h0.1v-0.2L4,14.4l0.1,0v-0.2L4,14.4l0.1,0l0.2,0
		l0.2-0.1l0.1-0.1l-0.3-0.3l0.2,0.3l3.3-1.5L8,12.3l0.2-0.5H7.4H7.3l-0.1,0L7.4,12.2v0.4h0.3v-0.4L7.3,12l-0.1,0.4l-3.1,1.4l0,0
		l0.1,0.1l-0.1-0.1l0,0l0.1,0.1l-0.1-0.1l0.2,0.3v-0.3l-0.2,0l0.2,0.3v-0.3v0.3l0.1-0.3l-0.1,0v0.3l0.1-0.3L4.3,14l0.1-0.2l0,0
		L4.3,14l0.1-0.2l0,0c0,0-0.1-0.1-0.3-0.1v0.4l0.2-0.3l-3.1-2.5l0-0.1l-1-0.4l0.2,0.4l3.9,3l3.3-1.6L7.4,12.2v0.4V12.2z"/>
	<polyline class="st0" points="13.5,34.5 6.1,4.6 5.7,4.7 13.2,34.5 	"/>
	
		<linearGradient id="SVGID_7_" gradientUnits="userSpaceOnUse" x1="-2.229686e-02" y1="34.6682" x2="0.9261" y2="34.6682" gradientTransform="matrix(-8.5586 0 0 -8.5586 13.5565 316.1008)">
		<stop  offset="0" style="stop-color:#F88357"/>
		<stop  offset="0.544" style="stop-color:#F6C83C"/>
		<stop  offset="1" style="stop-color:#F8B754"/>
	</linearGradient>
	<polygon class="st7" points="13.7,34.1 6.4,4.1 5.6,4.2 5.6,4.2 12.8,34.1 13.2,34.6 6.2,5 6.2,5 6.1,4.6 5.8,4.7 13.1,34.5 
		13.2,34.6 	"/>
</g>
<g>
	<linearGradient id="SVGID_8_" gradientUnits="userSpaceOnUse" x1="10.8036" y1="23.0683" x2="121.8093" y2="-11.5926">
		<stop  offset="0" style="stop-color:#F88357"/>
		<stop  offset="0.544" style="stop-color:#F6C83C"/>
		<stop  offset="1" style="stop-color:#F8B754"/>
	</linearGradient>
	<path class="st8" d="M29.9,24.9V8.4h4.4c0.8,0,1.5,0.1,2.1,0.3c0.6,0.2,1.2,0.5,1.7,0.9c0.5,0.4,0.8,0.9,1,1.5
		c0.2,0.6,0.3,1.4,0.3,2.3c0,0.7-0.1,1.4-0.2,1.9c-0.1,0.5-0.3,1-0.7,1.4c-0.4,0.5-0.9,1-1.6,1.3c-0.7,0.3-1.5,0.5-2.6,0.5h-1.5v6.4
		H29.9z M32.8,10.6v5.6h1.4c0.6,0,1-0.1,1.4-0.2c0.3-0.1,0.6-0.3,0.7-0.6c0.2-0.2,0.2-0.5,0.3-0.9c0-0.3,0-0.7,0-1.1
		c0-0.4,0-0.8,0-1.1c0-0.3-0.1-0.7-0.3-0.9c-0.2-0.3-0.4-0.5-0.7-0.6c-0.3-0.1-0.7-0.2-1.3-0.2H32.8z"/>
	<linearGradient id="SVGID_9_" gradientUnits="userSpaceOnUse" x1="12.1774" y1="27.2959" x2="123.3783" y2="-7.4261">
		<stop  offset="0" style="stop-color:#F88357"/>
		<stop  offset="0.544" style="stop-color:#F6C83C"/>
		<stop  offset="1" style="stop-color:#F8B754"/>
	</linearGradient>
	<path class="st9" d="M41.4,12.3c0-0.7,0.1-1.2,0.4-1.8c0.3-0.5,0.7-0.9,1.1-1.3c0.5-0.3,1-0.6,1.6-0.7c0.6-0.2,1.2-0.3,1.8-0.3
		c0.6,0,1.2,0.1,1.8,0.3c0.6,0.2,1.1,0.4,1.6,0.7c0.5,0.3,0.8,0.8,1.1,1.3c0.3,0.5,0.4,1.1,0.4,1.8V21c0,0.7-0.1,1.3-0.4,1.8
		c-0.3,0.5-0.7,0.9-1.1,1.2c-0.5,0.3-1,0.6-1.6,0.8c-0.6,0.2-1.2,0.3-1.8,0.3c-0.6,0-1.2-0.1-1.8-0.3C44,24.6,43.4,24.3,43,24
		c-0.5-0.3-0.9-0.7-1.1-1.2c-0.3-0.5-0.4-1.1-0.4-1.8V12.3z M44.3,21c0,0.6,0.2,1,0.6,1.3c0.4,0.3,0.9,0.4,1.4,0.4
		c0.5,0,1-0.1,1.4-0.4c0.4-0.3,0.6-0.7,0.6-1.3v-8.7c0-0.6-0.2-1-0.6-1.3c-0.4-0.3-0.9-0.4-1.4-0.4c-0.5,0-1,0.1-1.4,0.4
		c-0.4,0.3-0.6,0.7-0.6,1.3V21z"/>
	<linearGradient id="SVGID_10_" gradientUnits="userSpaceOnUse" x1="13.3345" y1="30.6885" x2="124.5622" y2="-4.0418">
		<stop  offset="0" style="stop-color:#F88357"/>
		<stop  offset="0.544" style="stop-color:#F6C83C"/>
		<stop  offset="1" style="stop-color:#F8B754"/>
	</linearGradient>
	<path class="st10" d="M63.2,13.2h-2.9v-0.5c0-0.5-0.2-1-0.5-1.4c-0.3-0.4-0.8-0.6-1.6-0.6c-0.4,0-0.7,0.1-1,0.2
		c-0.2,0.1-0.4,0.3-0.6,0.5c-0.2,0.2-0.3,0.4-0.3,0.7c-0.1,0.3-0.1,0.5-0.1,0.8c0,0.3,0,0.6,0,0.8s0.1,0.4,0.2,0.6
		c0.1,0.2,0.3,0.3,0.5,0.4c0.2,0.1,0.5,0.2,0.9,0.4l2.2,0.7c0.6,0.2,1.2,0.4,1.6,0.7c0.4,0.3,0.7,0.6,0.9,0.9
		c0.2,0.4,0.4,0.8,0.4,1.3c0.1,0.5,0.1,1,0.1,1.6c0,0.7-0.1,1.3-0.3,1.9c-0.2,0.6-0.4,1.1-0.8,1.5c-0.4,0.4-0.9,0.8-1.6,1
		c-0.7,0.2-1.4,0.4-2.4,0.4c-0.7,0-1.4-0.1-2-0.3c-0.6-0.2-1.1-0.5-1.6-0.8c-0.4-0.4-0.8-0.8-1-1.2c-0.3-0.5-0.4-1-0.4-1.5v-0.9h2.9
		V21c0,0.4,0.2,0.8,0.5,1.2c0.3,0.3,0.8,0.5,1.6,0.5c0.5,0,0.9-0.1,1.2-0.2c0.3-0.1,0.5-0.3,0.6-0.5c0.2-0.2,0.2-0.5,0.3-0.8
		c0-0.3,0-0.6,0-1c0-0.4,0-0.8-0.1-1.1c0-0.3-0.1-0.5-0.2-0.7c-0.1-0.2-0.3-0.3-0.5-0.4c-0.2-0.1-0.5-0.2-0.9-0.3L56.5,17
		c-1.3-0.4-2.1-1-2.5-1.7c-0.4-0.7-0.6-1.5-0.6-2.6c0-0.6,0.1-1.2,0.3-1.8c0.2-0.6,0.5-1,0.9-1.4c0.4-0.4,0.9-0.7,1.5-1
		c0.6-0.2,1.4-0.4,2.2-0.4c0.7,0,1.4,0.1,2,0.3c0.6,0.2,1.1,0.5,1.6,0.9c0.9,0.7,1.3,1.6,1.3,2.5V13.2z"/>
	<linearGradient id="SVGID_11_" gradientUnits="userSpaceOnUse" x1="14.6552" y1="33.8417" x2="125.4576" y2="-0.7558">
		<stop  offset="0" style="stop-color:#F88357"/>
		<stop  offset="0.544" style="stop-color:#F6C83C"/>
		<stop  offset="1" style="stop-color:#F8B754"/>
	</linearGradient>
	<path class="st11" d="M65.4,24.9V8.4h8.7v2.2h-5.8v4.8h5v2.2h-5v4.8h5.8v2.4H65.4z"/>
	<linearGradient id="SVGID_12_" gradientUnits="userSpaceOnUse" x1="16.0025" y1="35.8519" x2="125.7967" y2="1.5692">
		<stop  offset="0" style="stop-color:#F88357"/>
		<stop  offset="0.544" style="stop-color:#F6C83C"/>
		<stop  offset="1" style="stop-color:#F8B754"/>
	</linearGradient>
	<path class="st12" d="M76.1,24.9V8.4H79v16.4H76.1z"/>
	<linearGradient id="SVGID_13_" gradientUnits="userSpaceOnUse" x1="16.044" y1="38.038" x2="127.0556" y2="3.3752">
		<stop  offset="0" style="stop-color:#F88357"/>
		<stop  offset="0.544" style="stop-color:#F6C83C"/>
		<stop  offset="1" style="stop-color:#F8B754"/>
	</linearGradient>
	<path class="st13" d="M81.8,24.9V8.4h4.3c1.7,0,3,0.4,3.8,1.1c0.9,0.7,1.3,1.8,1.3,3.1v7.7c0,1.5-0.5,2.7-1.4,3.4
		c-0.9,0.7-2.3,1.1-4,1.1H81.8z M84.7,10.6v12h1.3c0.8,0,1.4-0.2,1.7-0.5c0.3-0.3,0.5-0.9,0.5-1.6v-7.9c0-0.6-0.2-1.1-0.5-1.5
		c-0.3-0.4-0.9-0.5-1.8-0.5H84.7z"/>
	<linearGradient id="SVGID_14_" gradientUnits="userSpaceOnUse" x1="17.2771" y1="42.0766" x2="128.4782" y2="7.3546">
		<stop  offset="0" style="stop-color:#F88357"/>
		<stop  offset="0.544" style="stop-color:#F6C83C"/>
		<stop  offset="1" style="stop-color:#F8B754"/>
	</linearGradient>
	<path class="st14" d="M93.8,12.3c0-0.7,0.1-1.2,0.4-1.8c0.3-0.5,0.7-0.9,1.1-1.3c0.5-0.3,1-0.6,1.6-0.7c0.6-0.2,1.2-0.3,1.8-0.3
		s1.2,0.1,1.8,0.3c0.6,0.2,1.1,0.4,1.6,0.7c0.5,0.3,0.8,0.8,1.1,1.3c0.3,0.5,0.4,1.1,0.4,1.8V21c0,0.7-0.1,1.3-0.4,1.8
		c-0.3,0.5-0.7,0.9-1.1,1.2c-0.5,0.3-1,0.6-1.6,0.8c-0.6,0.2-1.2,0.3-1.8,0.3s-1.2-0.1-1.8-0.3c-0.6-0.2-1.1-0.4-1.6-0.8
		c-0.5-0.3-0.9-0.7-1.1-1.2c-0.3-0.5-0.4-1.1-0.4-1.8V12.3z M96.8,21c0,0.6,0.2,1,0.6,1.3c0.4,0.3,0.9,0.4,1.4,0.4s1-0.1,1.4-0.4
		c0.4-0.3,0.6-0.7,0.6-1.3v-8.7c0-0.6-0.2-1-0.6-1.3c-0.4-0.3-0.9-0.4-1.4-0.4s-1,0.1-1.4,0.4c-0.4,0.3-0.6,0.7-0.6,1.3V21z"/>
	<linearGradient id="SVGID_15_" gradientUnits="userSpaceOnUse" x1="18.7053" y1="45.5182" x2="129.6455" y2="10.8777">
		<stop  offset="0" style="stop-color:#F88357"/>
		<stop  offset="0.544" style="stop-color:#F6C83C"/>
		<stop  offset="1" style="stop-color:#F8B754"/>
	</linearGradient>
	<path class="st15" d="M106.1,24.9V8.4h2.8l4.4,9.9h0.1V8.4h2.9v16.4h-2.7l-4.5-9.9H109v9.9H106.1z"/>
</g>
</svg>
