<?xml version="1.0" encoding="utf-8"?>
<!-- Generator: Adobe Illustrator 21.0.0, SVG Export Plug-In . SVG Version: 6.00 Build 0)  -->
<svg version="1.1" id="Layer_1" xmlns="http://www.w3.org/2000/svg" xmlns:xlink="http://www.w3.org/1999/xlink" x="0px" y="0px"
	 viewBox="0 0 50 50" style="enable-background:new 0 0 50 50;" xml:space="preserve">
<style type="text/css">
	.st0{opacity:0.2;}
	.st1{fill:url(#SVGID_1_);}
	.st2{fill:#FFBF17;stroke:url(#SVGID_2_);stroke-width:0.5;stroke-miterlimit:10;}
	.st3{fill:#FFBF17;stroke:url(#SVGID_3_);stroke-width:0.5;stroke-miterlimit:10;}
	.st4{fill:#FFBF17;stroke:url(#SVGID_4_);stroke-width:0.5;stroke-miterlimit:10;}
	.st5{fill:#FFBF17;stroke:url(#SVGID_5_);stroke-width:0.5;stroke-miterlimit:10;}
	.st6{fill:#FFBF17;stroke:url(#SVGID_6_);stroke-width:0.5;stroke-miterlimit:10;}
	.st7{fill:#FFBF17;stroke:url(#SVGID_7_);stroke-width:0.5;stroke-miterlimit:10;}
	.st8{fill:#FFBF17;stroke:url(#SVGID_8_);stroke-width:0.5;stroke-miterlimit:10;}
</style>
<title>Group</title>
<desc>Created using Figma</desc>
<g class="st0">
	
		<linearGradient id="SVGID_1_" gradientUnits="userSpaceOnUse" x1="-96.517" y1="277.1779" x2="263.5611" y2="567.3315" gradientTransform="matrix(1 0 0 1 0 -350)">
		<stop  offset="0" style="stop-color:#FA247C"/>
		<stop  offset="2.382660e-02" style="stop-color:#FA3077"/>
		<stop  offset="6.677425e-02" style="stop-color:#F94F6B"/>
		<stop  offset="0.1239" style="stop-color:#F88357"/>
		<stop  offset="0.1923" style="stop-color:#F6C83C"/>
		<stop  offset="0.2282" style="stop-color:#F5F02D"/>
		<stop  offset="0.2541" style="stop-color:#F5E932"/>
		<stop  offset="0.2915" style="stop-color:#F6D63F"/>
		<stop  offset="0.3358" style="stop-color:#F8B754"/>
		<stop  offset="0.3851" style="stop-color:#FA8B71"/>
		<stop  offset="0.4107" style="stop-color:#FB7282"/>
		<stop  offset="0.5496" style="stop-color:#AE20F2"/>
		<stop  offset="0.7282" style="stop-color:#60C0D2"/>
		<stop  offset="0.748" style="stop-color:#77B1BE"/>
		<stop  offset="0.7965" style="stop-color:#9A8BAD"/>
		<stop  offset="0.861" style="stop-color:#C35E99"/>
		<stop  offset="0.9188" style="stop-color:#E03E8B"/>
		<stop  offset="0.9671" style="stop-color:#F22A82"/>
		<stop  offset="1" style="stop-color:#F9237F"/>
	</linearGradient>
	<path class="st1" d="M24.9,49.9C11.2,49.9,0.1,38.7,0.1,25S11.2,0.2,24.9,0.2S49.8,11.3,49.8,25S38.6,49.9,24.9,49.9z M24.9,2.4
		C12.5,2.4,2.3,12.6,2.3,25s10.1,22.6,22.6,22.6S47.5,37.5,47.5,25S37.4,2.4,24.9,2.4z"/>
</g>
<g>
	<linearGradient id="SVGID_2_" gradientUnits="userSpaceOnUse" x1="11.5643" y1="25.04" x2="38.2923" y2="25.04">
		<stop  offset="0" style="stop-color:#F88357"/>
		<stop  offset="0.544" style="stop-color:#F6C83C"/>
		<stop  offset="1" style="stop-color:#F8B754"/>
	</linearGradient>
	<path class="st2" d="M38,18.8C38,18.8,38,18.8,38,18.8C38,18.7,38,18.7,38,18.8C38,18.7,38,18.7,38,18.8c0-0.1,0-0.1,0-0.1
		c0,0,0,0,0,0L32.7,12c0,0,0,0,0,0l0,0c0,0,0,0-0.1,0L25,7.5c-0.1,0-0.1,0-0.2,0l-7.6,4.4c0,0,0,0,0,0c0,0,0,0,0,0c0,0,0,0,0,0
		l-5.3,6.7c0,0.1-0.1,0.1,0,0.2L18.3,35c0,0,0,0,0,0.1l0.2,0.3c0.1-0.1,0.1-0.2,0.2-0.4l-0.1-0.1l-6.4-16l5.1-6.5l7.3,3.3
		c0,0,0,0,0,0l0.1,26.3l0,0.7c0.1,0.1,0.1,0.1,0.2,0.1c0.1,0,0.1-0.1,0.1-0.2L25,15.5l7.4-3.1l1.9,9l-3.7-1.5c-0.1,0-0.1,0-0.2,0
		c-0.1,0-0.1,0.1-0.1,0.2l0.8,15c0,0,0,0,0,0c0,0,0,0,0,0c0,0,0,0,0,0c0,0,0,0,0,0c0,0,0,0,0,0c0,0,0,0,0,0c0,0,0,0,0,0c0,0,0,0,0,0
		c0,0,0,0,0,0c0,0,0,0,0,0c0,0,0,0,0,0c0,0,0,0,0,0c0,0,0,0,0,0c0,0,0,0,0,0c0,0,0,0,0,0c0,0,0,0,0,0c0,0,0,0,0-0.1L38,18.8
		C38,18.8,38,18.8,38,18.8C38,18.8,38,18.8,38,18.8z M34.2,27.4l-1.9,4.8l2.6-10.5l2.6-2.3L34.2,27.4z M34.7,21.3l-1.8-8.4l4.6,5.9
		L34.7,21.3z M17.7,12l6.9-3.9l0,7L17.7,12z M25,8l7.1,4.1L25,15L25,8z M30.8,20.3l3.6,1.5l-2.9,11.8L30.8,20.3z"/>
	
		<linearGradient id="SVGID_3_" gradientUnits="userSpaceOnUse" x1="16.496" y1="35.4319" x2="19.4112" y2="35.4319" gradientTransform="matrix(-1 0 0 -1 49.5647 51.3204)">
		<stop  offset="0" style="stop-color:#F88357"/>
		<stop  offset="0.544" style="stop-color:#F6C83C"/>
		<stop  offset="1" style="stop-color:#F8B754"/>
	</linearGradient>
	<polyline class="st3" points="30.8,20 32.8,12.1 32.4,12 30.4,19.9 	"/>
	
		<linearGradient id="SVGID_4_" gradientUnits="userSpaceOnUse" x1="16.496" y1="24.0419" x2="25.0831" y2="24.0419" gradientTransform="matrix(-1 0 0 -1 49.5647 51.3204)">
		<stop  offset="0" style="stop-color:#F88357"/>
		<stop  offset="0.544" style="stop-color:#F6C83C"/>
		<stop  offset="1" style="stop-color:#F8B754"/>
	</linearGradient>
	<path class="st4" d="M25.3,41.6l7.4-29.5L32.4,12l-7.6,30.3c0,0.1,0,0.2,0.1,0.2c0.1,0,0.2,0,0.2,0L25.3,41.6z"/>
	
		<linearGradient id="SVGID_5_" gradientUnits="userSpaceOnUse" x1="29.8438" y1="24.379" x2="31.5285" y2="24.379" gradientTransform="matrix(-1 0 0 -1 49.5647 51.3204)">
		<stop  offset="0" style="stop-color:#F88357"/>
		<stop  offset="0.544" style="stop-color:#F6C83C"/>
		<stop  offset="1" style="stop-color:#F8B754"/>
	</linearGradient>
	<polyline class="st5" points="18.7,34.9 19.5,20.8 19.1,19.9 18.3,34.9 	"/>
	
		<linearGradient id="SVGID_6_" gradientUnits="userSpaceOnUse" x1="30.5912" y1="27.8255" x2="34.4686" y2="27.8255" gradientTransform="matrix(-1 0 0 -1 49.5647 51.3204)">
		<stop  offset="0" style="stop-color:#F88357"/>
		<stop  offset="0.544" style="stop-color:#F6C83C"/>
		<stop  offset="1" style="stop-color:#F8B754"/>
	</linearGradient>
	<path class="st6" d="M18.7,34.9l-2.9-13.2l1.7-9.5L17.1,12l-1.7,9.6c0,0,0,0.1,0,0.1l2.9,13.3L18.7,34.9L18.7,34.9z"/>
	
		<linearGradient id="SVGID_7_" gradientUnits="userSpaceOnUse" x1="29.998" y1="31.1422" x2="38.0283" y2="31.1422" gradientTransform="matrix(-1 0 0 -1 49.5647 51.3204)">
		<stop  offset="0" style="stop-color:#F88357"/>
		<stop  offset="0.544" style="stop-color:#F6C83C"/>
		<stop  offset="1" style="stop-color:#F8B754"/>
	</linearGradient>
	<path class="st7" d="M18.8,19.8l-3.2,1.6l-3.4-2.8l-0.2,0.3l3.5,2.8c0.1,0,0.1,0.1,0.2,0l3.3-1.5l0.2-0.6H18.8z"/>
	
		<linearGradient id="SVGID_8_" gradientUnits="userSpaceOnUse" x1="24.2021" y1="24.1706" x2="32.7756" y2="24.1706" gradientTransform="matrix(-1 0 0 -1 49.5647 51.3204)">
		<stop  offset="0" style="stop-color:#F88357"/>
		<stop  offset="0.544" style="stop-color:#F6C83C"/>
		<stop  offset="1" style="stop-color:#F8B754"/>
	</linearGradient>
	<polyline class="st8" points="25.1,42.3 17.5,12 17.1,12.1 24.8,42.5 	"/>
</g>
</svg>
