<svg width="221" height="221" viewBox="0 0 221 221" version="1.1" xmlns="http://www.w3.org/2000/svg" xmlns:xlink="http://www.w3.org/1999/xlink">
    <g id="Canvas" transform="translate(2148 -13905)">
        <g id="diagrm">
            <g id="Vector">
                <use xlink:href="#path0_fill" transform="translate(-2148 13905)" fill="#F1F1F1" />
            </g>
            <g id="Vector">
                <use xlink:href="#path1_fill" transform="translate(-2124.32 13928.6)" fill="#F1F1F1" />
            </g>
            <g id="Vector">
                <use xlink:href="#path2_fill" transform="translate(-2100.9 13952.2)" fill="#F1F1F1" />
            </g>
            <g id="Vector">
                <use xlink:href="#path3_fill" transform="translate(-2077.17 13975.9)" fill="#F1F1F1" />
            </g>
            <g id="Vector">
                <use xlink:href="#path4_fill" transform="translate(-2141.28 13905)" fill="#00E3F1" />
            </g>
            <g id="Vector">
                <use xlink:href="#path5_fill" transform="translate(-2042.64 13928.7)" fill="#089FAC" />
            </g>
            <g id="Vector">
                <use xlink:href="#path6_fill" transform="translate(-2039.55 13952.5)" fill="#0F5B66" />
            </g>
            <g id="Vector">
                <use xlink:href="#path7_fill" transform="translate(-2037.32 13977)" fill="#171721" />
            </g>
        </g>
    </g>
    <defs>
        <path id="path0_fill" d="M 110.5 221C 49.5576 221 0 171.442 0 110.5C 0 49.5576 49.5576 0 110.5 0C 171.442 0 221 49.5576 221 110.5C 221 171.442 171.442 221 110.5 221ZM 110.5 15.6263C 58.152 15.6263 15.6263 58.152 15.6263 110.5C 15.6263 162.848 58.152 205.374 110.5 205.374C 162.848 205.374 205.374 162.848 205.374 110.5C 205.374 58.152 162.848 15.6263 110.5 15.6263Z" />
        <path id="path1_fill" d="M 86.825 173.705C 65.1715 173.705 43.4063 165.669 26.5523 149.485C -7.93711 116.223 -8.94166 61.0846 24.2083 26.5952C 57.47 -7.89423 112.497 -9.01039 147.098 24.2512C 181.699 57.5128 182.703 112.54 149.442 147.141C 132.364 164.776 109.595 173.705 86.825 173.705ZM 86.825 15.6568C 68.0735 15.6568 49.4336 22.9118 35.4816 37.4219C 8.24723 65.7724 9.14016 110.977 37.3791 138.211C 65.7296 165.446 110.934 164.553 138.168 136.314C 165.403 107.963 164.51 62.7588 136.271 35.5245C 122.431 22.2421 104.684 15.6568 86.825 15.6568Z" />
        <path id="path2_fill" d="M 63.4037 126.578C 63.0688 126.578 62.8456 126.578 62.5107 126.578C 45.6567 126.355 29.8072 119.547 17.9759 107.492C 6.14457 95.4375 -0.217551 79.3648 0.00568085 62.5107C 0.228913 45.6567 7.0375 29.8072 19.092 17.9759C 31.1466 6.14457 47.2193 -0.217551 64.0734 0.00568084C 80.9274 0.228913 96.7769 7.0375 108.608 19.092C 120.44 31.1466 126.802 47.2193 126.578 64.0734C 126.355 80.9274 119.547 96.7769 107.492 108.608C 95.6607 120.216 80.0345 126.578 63.4037 126.578ZM 63.4037 15.6319C 50.9026 15.6319 39.183 20.4314 30.142 29.1375C 20.9895 38.0668 15.9668 49.8981 15.7436 62.6223C 15.5203 75.3466 20.3198 87.4011 29.2491 96.442C 38.1784 105.595 50.0097 110.617 62.734 110.841C 62.9572 110.841 63.1804 110.841 63.4037 110.841C 75.9047 110.841 87.6244 106.041 96.6653 97.335C 105.818 88.4057 110.841 76.5744 111.064 63.8501C 111.287 51.1259 106.488 39.0713 97.5582 30.0304C 88.6289 20.8779 76.7976 15.8552 64.0734 15.6319C 63.8501 15.6319 63.6269 15.6319 63.4037 15.6319Z" />
        <path id="path3_fill" d="M 39.5587 79.2444C 30.0713 79.2444 20.9188 75.8959 13.6637 69.5338C -2.85545 55.2469 -4.64131 30.2449 9.64556 13.7257C 16.5658 5.68937 26.1648 0.889874 36.7683 0.108561C 47.3718 -0.672752 57.5289 2.78735 65.5653 9.70755C 82.0844 23.9944 83.8703 49.1081 69.5834 65.6273C 62.6632 73.6636 53.0642 78.4631 42.4607 79.2444C 41.5678 79.2444 40.5632 79.2444 39.5587 79.2444ZM 23.9324 57.8141C 28.7319 62.0555 34.9824 64.0646 41.3445 63.6182C 47.7067 63.1717 53.6223 60.2697 57.7521 55.3586C 66.4582 45.3131 65.342 30.1333 55.2966 21.4272C 50.4971 17.1858 44.2466 15.1767 37.8844 15.6232C 31.5223 16.0697 25.6067 18.9717 21.4769 23.8828C 12.8824 33.9283 13.887 49.1081 23.9324 57.8141Z" />
        <path id="path4_fill" d="M 103.775 221C 80.894 221 59.0173 214.08 40.3774 201.021C 22.1839 188.296 8.34353 170.549 0.530394 149.901C -1.03223 145.882 0.976859 141.306 4.99504 139.855C 9.01322 138.292 13.5895 140.302 15.0405 144.32C 28.9925 180.818 64.7097 205.374 103.775 205.374C 156.123 205.374 198.649 162.848 198.649 110.5C 198.649 58.152 156.123 15.6263 103.775 15.6263C 99.4223 15.6263 95.9622 12.1662 95.9622 7.81313C 95.9622 3.4601 99.4223 0 103.775 0C 164.718 0 214.275 49.5576 214.275 110.5C 214.275 171.442 164.718 221 103.775 221Z" />
        <path id="path5_fill" d="M 59.9406 37.729C 58.0431 37.729 56.034 37.0593 54.4714 35.4967C 41.7472 23.3305 25.1163 16.1871 7.59261 15.629C 3.23958 15.5174 -0.108904 11.834 0.00271249 7.59261C 0.114329 3.23958 3.79766 -0.108905 8.03907 0.00271164C 29.4694 0.784025 49.7835 9.37847 65.2982 24.2234C 68.4234 27.2371 68.535 32.1482 65.5214 35.2734C 64.0704 36.836 62.0613 37.729 59.9406 37.729Z" />
        <path id="path6_fill" d="M 44.4657 35.0913C 42.2334 35.0913 40.0011 34.1983 38.4384 32.3009C 30.4021 22.8135 19.2405 16.8978 6.96268 15.5584C 2.72127 15.112 -0.403992 11.317 0.0424723 6.96399C 0.488937 2.61096 4.28389 -0.402673 8.63692 0.0437916C 24.9329 1.71803 39.8894 9.64278 50.493 22.2554C 53.2834 25.6039 52.8369 30.515 49.6001 33.3054C 48.0374 34.5332 46.2516 35.0913 44.4657 35.0913Z" />
        <path id="path7_fill" d="M 24.1474 25.8217C 21.9151 25.8217 19.6828 24.9287 18.1202 23.0313C 17.3389 22.0267 16.4459 21.1338 15.4414 20.3525C 12.651 17.8969 9.41411 16.2227 5.84239 15.3298C 1.71259 14.2136 -0.854581 9.97218 0.261581 5.84238C 1.37774 1.71259 5.61916 -0.854586 9.74895 0.261576C 15.6646 1.8242 20.9106 4.61461 25.5984 8.63279C 27.1611 9.97218 28.6121 11.5348 29.9515 13.0974C 32.7419 16.4459 32.2954 21.357 29.0585 24.1474C 27.7192 25.2636 25.9333 25.8217 24.1474 25.8217Z" />
    </defs>
</svg>