<?xml version="1.0" encoding="utf-8"?>
<!-- Generator: Adobe Illustrator 21.0.0, SVG Export Plug-In . SVG Version: 6.00 Build 0)  -->
<svg version="1.1" id="Layer_1" xmlns="http://www.w3.org/2000/svg" xmlns:xlink="http://www.w3.org/1999/xlink" x="0px" y="0px"
	 viewBox="0 0 260 260" style="enable-background:new 0 0 260 260;" xml:space="preserve">
<style type="text/css">
	.st0{opacity:0.2;}
	.st1{fill:#231F20;}
</style>
<g class="st0">
	<path class="st1" d="M130.8,258.3c-70.6,0-128-57.4-128-128s57.4-128,128-128s128,57.4,128,128S201.4,258.3,130.8,258.3z
		 M130.8,13.9c-64.2,0-116.4,52.2-116.4,116.4s52.2,116.4,116.4,116.4s116.4-52.2,116.4-116.4S195,13.9,130.8,13.9z"/>
</g>
<g>
	<path class="st1" d="M198.3,98.1l0-0.2l0-0.1l-0.1-0.2l0-0.1l0,0L171,62.9l0,0l0,0c-0.1-0.1-0.2-0.2-0.3-0.3l-39.4-22.6
		c-0.3-0.2-0.7-0.2-1,0L91,62.6l0,0c-0.1,0.1-0.2,0.1-0.2,0.2l0,0L63.5,97.5c-0.2,0.3-0.3,0.7-0.1,1l33.3,83c0,0.1,0.1,0.2,0.2,0.3
		l1.2,1.4c0.3-0.6,0.7-1.3,1.1-1.9l-0.6-0.7l-33-82.3l26.3-33.5l37.6,16.8c0,0,0,0,0.7,0v135.3l0,3.4c0.3,0.3,0.7,0.4,1.1,0.3
		c0.4-0.1,0.7-0.5,0.9-1V81l37.4-16.1l9.8,46.1l-18.9-7.9c-0.3-0.1-0.7-0.1-1,0.1c-0.3,0.2-0.4,0.5-0.4,0.9l4.1,77l0,0l0,0.2
		l0.1,0.2l0.1,0.1l0.1,0.2l0.1,0.1l0.2,0.1l0.1,0l0.1,0l0.1,0l0.1,0l0.2,0l0.2-0.1l0.1-0.1l0.2-0.1l0.1-0.1c0.1-0.1,0.2-0.2,0.2-0.3
		l33.3-83C198.3,98.4,198.3,98.3,198.3,98.1L198.3,98.1z M178.4,142.5l-10,25l13.2-54.3l13.2-11.6L178.4,142.5z M181.3,110.8
		l-9.2-43.2L195.9,98L181.3,110.8z M93.4,63.4L129,43.3l0.1,36.1L93.4,63.4z M130.9,42.4l36.6,21L131,78.8L130.9,42.4z M161,105.6
		l18.4,7.7l-14.8,60.8L161,105.6z"/>
	<path class="st1" d="M198.3,98.1l2-0.3l0-0.2l0-0.1l-0.1-0.2l0-0.2l-0.2-0.4l0-0.1l-0.1-0.1l0,0l0,0l-0.1-0.1l-27.2-34.7l-1.6,1.2
		l1.7-1l0,0l-0.1-0.1l-0.1-0.1l-1.6,1.2l1.6-1.2c-0.3-0.3-0.5-0.6-0.9-0.8l-39.4-22.6l0,0c-0.5-0.3-1-0.4-1.5-0.4
		c-0.5,0-1,0.1-1.5,0.4L89.8,61l-0.2,0.1l1.3,1.5l-1-1.7c-0.3,0.2-0.6,0.4-0.7,0.6l1.5,1.3l-1.3-1.5l0,0l-0.1,0.1L61.9,96.2l0,0
		c-0.4,0.5-0.6,1.2-0.6,1.9c0,0.4,0.1,0.8,0.2,1.1l33.3,83l0,0c0.1,0.3,0.3,0.6,0.5,0.8l0,0l3.1,3.6l1.4-2.6c0.3-0.6,0.7-1.2,1-1.8
		l0.8-1.2l-1.3-1.5L67.8,98.6l24.6-31.4l36.1,16.2l0,0c0.1,0,0.3,0.1,0.4,0.1c0.2,0,0.3,0,0.4,0c0.1,0,0.1,0,0.2,0
		c0.1,0,0.2,0,0.5,0l0-2h-2v135.3l0,4.2l0.5,0.6c0.6,0.7,1.4,1,2.3,1c0.4,0,0.7-0.1,1.1-0.2l0,0l0,0c0.6-0.2,1-0.6,1.3-0.9
		c0.3-0.3,0.5-0.7,0.6-0.9l0.2-0.4V82.4L168,67.7l8.5,40l-15.4-6.4l0,0c-0.4-0.2-0.8-0.2-1.2-0.2c-0.6,0-1.2,0.2-1.7,0.6l0,0
		c-0.8,0.6-1.3,1.5-1.3,2.5l0,0.2l0,0l4.1,77.2l0,0.2l0,0l0,0.2l0,0.1l0.1,0.3l0.1,0.2l0.2,0.3l0.1,0.1l0.2,0.2l0.1,0.2l0.3,0.2
		l0.1,0.1l0.3,0.2l0,0l0.1,0l0.3,0.2l0.5,0.1l0.2-2l-0.7,1.9l0.1,0l0.3,0.1l0.5,0l0,0l0.2,0l0.2,0l0.4-0.1l0.1,0l0.2-0.1l0.3-0.1
		l0.4-0.3l0.1,0l0.2-0.1l0.1-0.1l0.1-0.1c0.2-0.2,0.4-0.6,0.6-0.9l0,0l33.3-83l0,0c0.1-0.3,0.2-0.7,0.2-0.9l0-0.1l0-0.2l0-0.1l0-0.1
		L198.3,98.1l-2,0l0,0.1L198.3,98.1l-2-0.1l1,0.1l-0.9-0.4c-0.1,0.1-0.1,0.2-0.1,0.3l1,0.1l-0.9-0.4l0,0l-33.3,83l0,0l0.9,0.4
		l-0.7-0.7c-0.1,0.1-0.1,0.2-0.2,0.3l0.9,0.4l-0.7-0.7l1.5,1.4l-1.3-1.6l-0.1,0l-0.1,0.1l1.2,1.6l-0.7-1.9l0,0l-0.1,0l0.5,1.9l0-2
		l-0.2,0l0,0l-0.1,0l0,2l0.7-1.9l-0.1,0l-0.2-0.1l-0.3,0l-0.2,2l1-1.8l-0.1,0l-0.2-0.1l-1,1.8l1.2-1.6l-0.1-0.1l-1.2,1.6l1.5-1.3
		l0-0.1l0,0l-1.7,1.1l1.9-0.6l0-0.1l0,0l0,0l0-0.1l-1.9,0.4l2-0.1l-4.1-77l0,0l-1,0.1h1l0-0.1l-1,0.1h1h-1l0.6,0.8
		c0.3-0.2,0.4-0.5,0.4-0.8h-1l0.6,0.8l0,0l-0.6-0.8v1c0.2,0,0.4-0.1,0.6-0.2l-0.6-0.8v1v-1l-0.4,0.9c0.1,0.1,0.3,0.1,0.4,0.1v-1
		l-0.4,0.9l0,0l22.5,9.4l-11.1-52.2l-40.8,17.6v139.9h2l-1.8-0.9l-0.1,0.2l0,0l0.1,0.1l-0.1-0.1l0,0l0.1,0.1l-0.1-0.1l0.6,0.6
		l-0.3-0.7c-0.2,0.1-0.3,0.2-0.3,0.2l0.6,0.6l-0.3-0.7l0,0l0.3,0.9v-1c-0.1,0-0.2,0-0.3,0.1l0.3,0.9v-1v1l0.7-0.6
		c-0.2-0.2-0.5-0.3-0.7-0.3v1l0.7-0.6l-1.5,1.3l2,0l0-3.4l0,0V79.6l-2,0c-0.3,0-0.5,0-0.6,0l0,0l0,1.6l0.2-1.5c-0.1,0-0.1,0-0.1,0
		l0,1.6l0.2-1.5l-0.2,1.9l0.5-1.9c-0.1,0-0.2,0-0.3-0.1l-0.2,1.9l0.5-1.9l-0.5,1.9l0.8-1.8c-0.1,0-0.2-0.1-0.3-0.1l-0.5,1.9l0.8-1.8
		l0,0l-39-17.5l-28,35.6l33.6,83.7l0.8,0.9l1.5-1.3l-1.7-1.1c-0.4,0.7-0.8,1.3-1.1,2l1.8,0.9l1.5-1.3l-1.2-1.4l0,0l-0.8,0.7l0.9-0.4
		l-0.2-0.3l-0.8,0.7l0.9-0.4l-33.3-83l-0.9,0.4h1c0-0.1,0-0.2-0.1-0.4l-0.9,0.4h1h-1l0.8,0.6c0.1-0.2,0.2-0.4,0.2-0.6h-1l0.8,0.6
		l27.1-34.6l-1.6-1.2l1.3,1.5l0,0l0.1-0.1l0.1-0.1l-0.8-0.6l0.5,0.9c0.1-0.1,0.2-0.2,0.3-0.2l-0.8-0.6l0.5,0.9l0.2-0.1l0.2-0.1
		L91,62.6l1,1.7l39.4-22.6l-0.5-0.9l0,1c0.2,0,0.3,0,0.5-0.1l-0.5-0.9l0,1v-1l-0.5,0.9c0.2,0.1,0.3,0.1,0.5,0.1v-1l-0.5,0.9l0,0
		l39.3,22.6l0,0l0.5-0.9l-0.8,0.6c0.1,0.1,0.2,0.2,0.3,0.2l0.5-0.9l-0.8,0.6l0,0l0,0l1.6-1.2l-1.7,1l0,0l0.1,0.1l27.2,34.7l1.6-1.2
		l-1.7,1l0,0l0,0l0,0l0.1,0.1l1.8-0.9l-1.9,0.5l0,0.1l1.9-0.5l-2,0.3l0,0.2L198.3,98.1l-2,0L198.3,98.1z M178.4,142.5l-1.9-0.7
		l-10,25l1.9,0.7l1.9,0.5l13.1-53.6l6.4-5.7l-13.3,33.1L178.4,142.5l1.9,0.7l19.5-48.7l-20,17.5L166.4,167l3.8,1.2l10-25
		L178.4,142.5z M181.3,110.8l2-0.4l-7.4-34.8l17.3,22.1L180,109.3L181.3,110.8l2-0.4L181.3,110.8l1.3,1.5l16.1-14.1l-30.3-38.7
		l11.7,55l2.6-2.2L181.3,110.8z M93.4,63.4l1,1.7L127,46.7l0.1,29.6L94.2,61.6L93.4,63.4l1,1.7L93.4,63.4l-0.8,1.8l38.5,17.2
		L131,39.9L89,63.6l3.6,1.6L93.4,63.4z M130.9,42.4l-1,1.7l33.1,19l-30,12.7l-0.1-33.4L130.9,42.4l-1,1.7L130.9,42.4l-2,0l0.1,39.5
		l43-18.2l-43.1-24.7l0,3.5L130.9,42.4z M161,105.6l-0.8,1.8l16.8,7l-11.2,45.9l-2.9-54.9L161,105.6l-0.8,1.8L161,105.6l-2,0.1
		l4.3,82.1l18.5-75.7l-22.9-9.6l0.2,3.2L161,105.6z"/>
	<polyline class="st1" points="160.9,104.3 171.2,63.8 169.2,63.3 159,103.8 	"/>
	<polygon class="st1" points="162.9,104.8 173.6,62.3 167.7,60.8 157,103.3 160.9,104.3 170.6,65.7 170.7,65.7 171.2,63.8 
		169.2,63.3 159,103.8 162.9,104.8 	"/>
	<path class="st1" d="M132.9,215.7l38.3-151.9l-2-0.5l-39.4,156.1c-0.1,0.5,0.1,0.9,0.5,1.1c0.4,0.2,0.9,0.1,1.2-0.2L132.9,215.7z"
		/>
	<path class="st1" d="M132.9,215.7l1.9,0.5l38.8-153.9l-5.8-1.5l-39.8,158.1l0,0c-0.1,0.2-0.1,0.5-0.1,0.7c0,1.1,0.6,2.1,1.6,2.7
		l0,0c0.4,0.2,0.9,0.3,1.4,0.3c0.9,0,1.7-0.4,2.3-1l0.3-0.3l1.4-5l0,0L132.9,215.7l-1.9-0.5l-1.3,4.6l1.9,0.5l-1.5-1.3l0.7,0.6v-1
		c-0.3,0-0.6,0.1-0.7,0.3l0.7,0.6v-1v1l0.5-0.9c-0.1-0.1-0.3-0.1-0.5-0.1v1l0.5-0.9l0,0l-0.5,0.9h1c0-0.4-0.2-0.7-0.5-0.9l-0.5,0.9
		h1h-1l0.9,0.2l0-0.2h-1l0.9,0.2l38.9-154.2l0,0l0.5-1.9l-1.9-0.5l-38.3,151.9L132.9,215.7l-1.9-0.5L132.9,215.7z"/>
	<polyline class="st1" points="98.6,181.1 102.7,108.2 100.7,104 96.6,181 	"/>
	<polygon class="st1" points="100.6,181.2 104.7,107.8 99.1,96.1 94.6,180.9 98.6,181.1 102.7,104.1 100.7,104 98.9,104.9 
		100.7,108.6 96.6,181 100.6,181.2 	"/>
	<path class="st1" d="M98.6,180.9l-15.1-68.2l8.9-49l-2-0.4l-9,49.2c0,0.1,0,0.3,0,0.4l15.1,68.4L98.6,180.9z"/>
	<path class="st1" d="M98.6,180.9l2-0.4l-15-67.8l9.2-50.6L88.8,61l-9.3,51.2l0,0c0,0.2,0,0.4,0,0.5c0,0.2,0,0.4,0.1,0.7l0,0
		l15.6,70.3l5.9-1.3l-0.4-2L98.6,180.9l-0.4-2l0,0l-14.7-66.4l0,0l-1,0.2h1l0-0.2l-1,0.2h1h-1l1,0.2l0-0.2h-1l1,0.2l0,0l8.6-47.2
		l0,0l0.4-2l-2-0.4l-9,49.4l15.2,68.6L98.6,180.9l-0.4-2L98.6,180.9z"/>
	<path class="st1" d="M99.2,103.3l-16.6,8.4L64.9,97.4L63.7,99l18.2,14.6c0.3,0.2,0.7,0.3,1.1,0.1l17.1-7.6l1.2-2.9H99.2z"/>
	<path class="st1" d="M99.2,103.3l-0.9-1.8l-15.4,7.8L64.6,94.6l-3.8,4.7l19.7,15.9c0.5,0.4,1.2,0.7,1.9,0.7c0.4,0,0.8-0.1,1.2-0.3
		l0,0l17.9-7.9l2.7-6.4h-5.5l-0.4,0.2L99.2,103.3v2h2v-2l-1.8-0.8l-0.9,2.1l-16.4,7.3l0,0l0.4,0.9v-1c-0.1,0-0.3,0-0.4,0.1l0.4,0.9
		v-1v1l0.6-0.8c-0.2-0.1-0.4-0.2-0.6-0.2v1l0.6-0.8L66.5,98.7l0,0l-1.6-1.3L63.7,99l18.7,15l17.7-9L99.2,103.3v2V103.3z"/>
	<polyline class="st1" points="131.8,219.4 92.4,63.3 90.5,63.8 130,220.3 	"/>
	<polygon class="st1" points="133.7,218.9 93.9,60.8 88,62.3 128.1,220.8 132,219.8 92.9,65.2 92.9,65.2 92.4,63.3 90.5,63.7 
		129.9,219.9 133.7,218.9 	"/>
</g>
</svg>
